<svg width="636" height="719" viewBox="0 0 636 719" fill="none" xmlns="http://www.w3.org/2000/svg">
<g filter="url(#filter0_d_1_896)">
<path fill-rule="evenodd" clip-rule="evenodd" d="M558.517 522.533C558.096 525.948 557.463 529.334 556.622 532.671C553.841 544.063 549.846 555.123 544.703 565.661C541.273 573.241 537.919 579.494 533.106 588.722L527.062 600.47C518.459 616.937 510.311 632.437 501.519 648.96L498.619 654.361C496.289 658.7 493.484 663.835 491.267 667.985C488.804 672.419 486.928 675.773 486.644 676.114C488.197 672.893 491.987 665.313 495.777 657.98C502.087 645.663 510.936 628.647 517.227 616.804C522.002 607.709 526.853 598.518 531.496 589.688C536.138 580.858 540.97 571.876 545.082 563.008C548.097 556.725 550.791 550.293 553.154 543.737C555.595 536.85 557.39 529.752 558.517 522.533Z" fill="black"/>
<path fill-rule="evenodd" clip-rule="evenodd" d="M548.967 547.981C548.94 547.533 548.94 547.084 548.967 546.636C548.867 545.104 548.534 543.596 547.981 542.164C547.735 541.69 547.527 541.235 547.261 540.8C546.992 540.306 546.545 539.934 546.011 539.757C545.761 539.719 545.505 539.75 545.271 539.847C545.037 539.944 544.834 540.103 544.684 540.307C544.313 540.712 544.034 541.193 543.868 541.717C543.701 542.24 543.65 542.794 543.718 543.339C543.952 544.439 544.57 545.419 545.461 546.105L546.087 546.56C546.645 546.906 547.22 547.222 547.811 547.508C548.206 547.669 548.557 547.922 548.834 548.247C547.934 548.106 547.064 547.818 546.257 547.394C545.279 546.935 544.432 546.237 543.794 545.366C543.125 544.47 542.839 543.346 542.998 542.24C543.13 541.512 543.428 540.824 543.87 540.231C544.075 539.886 544.371 539.603 544.724 539.413C545.078 539.223 545.477 539.132 545.878 539.151C546.276 539.208 546.655 539.357 546.984 539.588C547.313 539.818 547.584 540.123 547.773 540.478C548.126 541.076 548.412 541.711 548.626 542.372C548.919 543.268 549.097 544.198 549.156 545.139C549.249 546.09 549.185 547.051 548.967 547.981Z" fill="black"/>
<path fill-rule="evenodd" clip-rule="evenodd" d="M554.708 544.325C555.087 544.628 555.599 544.457 556.034 544.325C557.468 543.871 558.838 543.234 560.108 542.43C560.885 541.729 561.795 541.312 562.325 540.175C562.414 539.941 562.448 539.689 562.425 539.44C562.403 539.19 562.323 538.949 562.193 538.735C561.643 537.901 560.298 538.204 559.407 538.735C558.406 539.226 557.546 539.963 556.906 540.876C556.752 541.074 556.613 541.283 556.489 541.501C556.184 542.051 555.949 542.637 555.788 543.245C555.697 543.642 555.55 544.025 555.352 544.382C555.261 544.016 555.229 543.639 555.258 543.264C555.325 542.739 555.452 542.224 555.636 541.729C556.016 540.739 556.619 539.851 557.399 539.133C558.18 538.404 559.131 537.883 560.165 537.617C560.544 537.498 560.946 537.47 561.338 537.536C561.73 537.602 562.101 537.759 562.42 537.996C562.713 538.279 562.92 538.639 563.018 539.034C563.115 539.43 563.098 539.845 562.97 540.232C562.394 541.511 561.397 542.554 560.146 543.188C559.334 543.637 558.468 543.981 557.569 544.211C557.104 544.354 556.629 544.462 556.148 544.533C555.902 544.533 555.674 544.533 555.428 544.533C555.3 544.566 555.166 544.564 555.04 544.527C554.913 544.49 554.799 544.421 554.708 544.325Z" fill="black"/>
<path fill-rule="evenodd" clip-rule="evenodd" d="M557.929 520.979C558.023 520.522 558.093 520.061 558.138 519.596C558.165 518.811 558.023 518.03 557.722 517.304C557.422 516.578 556.969 515.925 556.394 515.39C555.956 515.032 555.449 514.767 554.905 514.611C554.362 514.454 553.792 514.41 553.23 514.48C552.674 514.595 552.162 514.864 551.752 515.257C551.308 515.613 550.982 516.094 550.816 516.639C550.65 517.183 550.653 517.765 550.824 518.308C551.298 519.401 552.099 520.321 553.116 520.942L553.799 521.34C554.392 521.661 555.031 521.891 555.693 522.022C556.338 522.192 556.849 522.287 556.906 522.42C555.973 522.543 555.024 522.412 554.159 522.041C553.132 521.649 552.202 521.041 551.43 520.259C551.014 519.88 550.683 519.417 550.458 518.901C550.233 518.386 550.118 517.828 550.122 517.266C550.197 516.506 550.508 515.789 551.011 515.214C551.514 514.64 552.184 514.237 552.927 514.063C553.645 513.932 554.384 513.981 555.079 514.206C555.773 514.431 556.401 514.825 556.906 515.352C557.581 516.092 558.022 517.015 558.176 518.005C558.333 519.002 558.249 520.022 557.929 520.979Z" fill="black"/>
<path fill-rule="evenodd" clip-rule="evenodd" d="M558.138 520.809C558.4 520.827 558.656 520.891 558.896 520.998C559.332 521.12 559.742 521.319 560.108 521.586C560.301 521.743 560.448 521.949 560.534 522.182C560.621 522.415 560.644 522.667 560.601 522.912C560.601 523.651 559.995 524.087 559.256 524.466C558.935 524.653 558.581 524.775 558.214 524.826C557.813 524.888 557.403 524.841 557.027 524.691C556.65 524.541 556.321 524.293 556.072 523.973C555.815 523.645 555.665 523.245 555.641 522.829C555.617 522.412 555.721 521.998 555.94 521.643C556.079 521.505 556.239 521.39 556.413 521.301C556.762 521.053 557.165 520.891 557.588 520.828C557.834 520.747 558.1 520.747 558.346 520.828C557.872 520.999 557.41 521.202 556.963 521.434C556.744 521.559 556.569 521.747 556.461 521.974C556.352 522.201 556.316 522.455 556.357 522.704C556.393 522.94 556.477 523.166 556.604 523.368C556.731 523.57 556.898 523.744 557.095 523.879C557.392 524.017 557.715 524.089 558.043 524.089C558.37 524.089 558.694 524.017 558.99 523.879C559.616 523.632 560.184 523.121 560.203 522.628C560.218 522.411 560.178 522.194 560.089 521.996C560 521.797 559.863 521.624 559.692 521.491C559.22 521.169 558.693 520.938 558.138 520.809Z" fill="black"/>
<path fill-rule="evenodd" clip-rule="evenodd" d="M559.806 523.329C560.229 523.199 560.659 523.092 561.094 523.007C562.487 522.472 563.771 521.688 564.884 520.695C565.677 520.015 566.256 519.12 566.551 518.118C566.57 517.878 566.53 517.636 566.434 517.415C566.339 517.194 566.19 516.999 566.002 516.848C565.57 516.549 565.075 516.356 564.554 516.284C564.034 516.211 563.505 516.262 563.008 516.432C561.926 516.672 560.906 517.137 560.014 517.796L559.427 518.27C558.97 518.645 558.612 519.126 558.384 519.672C558.243 520.02 558.191 520.398 558.233 520.771C558.092 520.632 557.985 520.462 557.923 520.274C557.86 520.086 557.843 519.886 557.873 519.691C557.956 519.138 558.192 518.619 558.555 518.194C559.231 517.401 560.063 516.756 560.999 516.299C561.925 515.845 562.928 515.569 563.955 515.484C564.706 515.424 565.459 515.589 566.115 515.958C566.462 516.162 566.748 516.453 566.948 516.802C567.147 517.151 567.252 517.546 567.252 517.947C567.197 518.689 566.905 519.393 566.419 519.956C565.998 520.469 565.521 520.933 564.998 521.339C564.262 521.894 563.452 522.34 562.591 522.666C561.696 523.01 560.759 523.233 559.806 523.329Z" fill="black"/>
<path fill-rule="evenodd" clip-rule="evenodd" d="M559.502 523.348C559.479 523.735 559.383 524.115 559.218 524.466C558.818 525.773 558.016 526.92 556.925 527.744C556.152 528.425 555.197 528.866 554.178 529.014C553.648 529.137 553.097 529.137 552.567 529.014C552.276 528.93 552.004 528.787 551.77 528.595C551.535 528.403 551.342 528.165 551.203 527.896C550.951 527.376 550.821 526.806 550.824 526.228C550.83 525.655 550.953 525.089 551.184 524.565C551.415 524.041 551.75 523.569 552.169 523.177C552.356 523.006 552.559 522.854 552.775 522.723C553.348 522.372 553.999 522.17 554.67 522.135C554.866 522.111 555.064 522.131 555.251 522.193C555.438 522.256 555.608 522.359 555.75 522.495C555.019 522.568 554.303 522.753 553.628 523.045C552.905 523.407 552.324 524.002 551.981 524.734C551.637 525.466 551.55 526.293 551.733 527.081C551.87 527.546 552.181 527.941 552.6 528.184C553.019 528.427 553.516 528.5 553.988 528.388C555.035 528.244 556.024 527.818 556.849 527.157C557.473 526.722 558.023 526.191 558.479 525.584C558.959 524.91 559.306 524.151 559.502 523.348Z" fill="black"/>
<path fill-rule="evenodd" clip-rule="evenodd" d="M559.806 522.799C560.187 522.722 560.58 522.722 560.961 522.799C561.633 522.771 562.303 522.893 562.922 523.155C563.542 523.417 564.095 523.813 564.543 524.315C564.9 524.68 565.175 525.118 565.348 525.598C565.521 526.079 565.589 526.591 565.547 527.1C565.535 527.652 565.371 528.19 565.073 528.654C564.748 529.148 564.287 529.54 563.747 529.781C563.206 530.023 562.608 530.105 562.023 530.018C561.464 529.861 560.946 529.588 560.502 529.215C560.058 528.843 559.698 528.38 559.445 527.858C559.351 527.65 559.237 527.441 559.142 527.195C558.911 526.628 558.777 526.026 558.744 525.414C558.744 524.807 558.934 524.372 559.066 524.334C559.209 525.055 559.405 525.764 559.654 526.456C559.956 527.207 560.414 527.886 560.999 528.446C561.241 528.696 561.539 528.884 561.869 528.992C562.2 529.101 562.551 529.128 562.894 529.071C563.359 528.972 563.786 528.74 564.122 528.404C564.458 528.067 564.69 527.641 564.789 527.176C564.859 526.695 564.822 526.205 564.681 525.74C564.54 525.275 564.299 524.847 563.974 524.485C563.467 523.905 562.822 523.462 562.098 523.197C561.366 522.921 560.588 522.786 559.806 522.799Z" fill="black"/>
<path fill-rule="evenodd" clip-rule="evenodd" d="M96.9784 493.125L94.7803 505.309C92.5059 519.186 91.0947 533.191 90.5547 547.243C90.2385 557.549 90.5676 567.864 91.5401 578.129C92.0327 583.511 92.9423 588.76 93.8139 593.819C95.7654 604.545 98.9444 615.01 103.288 625.009C107.716 635.033 113.191 644.56 119.622 653.432C121.025 655.327 122.427 657.222 124.075 659.269C127.922 664.097 132.048 668.697 136.43 673.044C140.712 677.384 144.18 680.397 144.483 680.87C142.854 679.487 139.973 677.27 136.904 674.257C133.409 671.006 130.082 667.578 126.937 663.987C114.506 649.991 104.859 633.752 98.5133 616.141C94.4041 604.514 91.7624 592.419 90.6495 580.138C89.4352 568.177 89.1501 556.14 89.7968 544.135C90.2516 535.532 91.199 527.271 92.3359 519.085C93.6624 510.311 95.2351 501.69 96.9784 493.125Z" fill="black"/>
<path fill-rule="evenodd" clip-rule="evenodd" d="M89.266 519.407C89.1328 518.914 89.0253 518.414 88.9439 517.91C88.4407 516.256 87.7609 514.662 86.9164 513.154L85.931 511.676C85.5843 511.122 85.1563 510.624 84.6614 510.198C84.5685 510.105 84.4564 510.035 84.3331 509.991C84.2098 509.947 84.0784 509.931 83.9481 509.943C83.8179 509.956 83.692 509.997 83.5795 510.064C83.467 510.131 83.3706 510.222 83.2971 510.33C83.0156 510.872 82.9159 511.49 83.0129 512.092C83.0871 512.716 83.2598 513.323 83.5245 513.893C84.0894 515.06 84.9201 516.079 85.95 516.868L86.6321 517.398C87.2195 517.834 87.9586 518.251 88.527 518.63C89.0955 519.009 89.5503 519.501 89.5503 519.653C88.5622 519.384 87.6224 518.962 86.7648 518.402C85.731 517.807 84.7974 517.052 83.9982 516.166C83.1952 515.254 82.6233 514.162 82.3307 512.983C82.123 512.162 82.123 511.303 82.3307 510.482C82.4087 510.24 82.5344 510.017 82.7005 509.825C82.8665 509.633 83.0694 509.476 83.2971 509.364C83.5355 509.27 83.7935 509.236 84.0481 509.266C84.3027 509.295 84.5459 509.388 84.7562 509.534C85.4012 510.021 85.9478 510.625 86.3668 511.316C86.7869 511.925 87.1728 512.558 87.5227 513.21C87.9887 514.151 88.3631 515.135 88.6407 516.147C88.9911 517.202 89.2013 518.298 89.266 519.407Z" fill="black"/>
<path fill-rule="evenodd" clip-rule="evenodd" d="M93.4349 529.525C93.8648 529.4 94.3013 529.299 94.7424 529.222C96.1766 528.714 97.5345 528.013 98.7785 527.138C99.6528 526.484 100.425 525.705 101.071 524.826C101.212 524.617 101.31 524.382 101.359 524.134C101.407 523.887 101.406 523.633 101.356 523.386C101.223 522.969 100.711 522.931 100.2 523.082C99.6734 523.276 99.166 523.517 98.6838 523.803C97.7041 524.388 96.8218 525.124 96.0688 525.982L95.5951 526.588C95.2151 527.102 94.8792 527.647 94.5908 528.218C94.4137 528.56 94.28 528.923 94.1929 529.298C94.0559 529.138 93.9656 528.944 93.9322 528.737C93.8987 528.53 93.9234 528.317 94.0034 528.123C94.1583 527.612 94.3747 527.122 94.6477 526.664C95.1809 525.746 95.8592 524.92 96.6563 524.219C97.4427 523.531 98.3396 522.98 99.3091 522.59C99.6614 522.37 100.068 522.253 100.484 522.253C100.899 522.253 101.306 522.37 101.659 522.59C101.835 522.75 101.967 522.952 102.043 523.178C102.12 523.403 102.137 523.644 102.095 523.878C102.047 524.258 101.924 524.625 101.735 524.958C100.996 526.119 99.9965 527.093 98.8164 527.801C98.0157 528.284 97.1642 528.678 96.2773 528.976C95.3571 529.279 94.4019 529.464 93.4349 529.525Z" fill="black"/>
<path fill-rule="evenodd" clip-rule="evenodd" d="M97.0541 491.931C96.936 491.589 96.8783 491.23 96.8835 490.869C96.796 490.241 96.8624 489.6 97.0769 489.003C97.2914 488.405 97.6477 487.869 98.1152 487.44C98.4572 487.108 98.8707 486.858 99.3239 486.71C99.7771 486.563 100.258 486.52 100.73 486.587C101.233 486.651 101.71 486.848 102.113 487.155C102.541 487.481 102.857 487.931 103.02 488.443C103.183 488.955 103.184 489.504 103.023 490.017C102.648 490.966 101.986 491.775 101.128 492.329C100.934 492.451 100.732 492.559 100.522 492.651C100.007 492.901 99.4576 493.073 98.8921 493.162C98.3426 493.162 97.9257 493.162 97.8689 492.992C98.559 492.858 99.2371 492.668 99.8964 492.423C100.61 492.087 101.253 491.617 101.791 491.04C102.311 490.543 102.617 489.864 102.644 489.145C102.579 488.674 102.375 488.233 102.058 487.878C101.74 487.523 101.324 487.272 100.863 487.155C100.391 487.067 99.904 487.095 99.445 487.237C98.9861 487.379 98.5687 487.631 98.2289 487.97C97.716 488.45 97.3539 489.069 97.1867 489.751C96.9925 490.461 96.9473 491.203 97.0541 491.931Z" fill="black"/>
<path fill-rule="evenodd" clip-rule="evenodd" d="M96.8078 491.741C96.62 491.827 96.4228 491.891 96.2204 491.931C95.9 492.031 95.6194 492.229 95.4186 492.498C95.2178 492.767 95.1072 493.092 95.1024 493.428C95.3099 493.852 95.668 494.183 96.1067 494.356C96.3324 494.432 96.5702 494.464 96.8078 494.451C97.0305 494.468 97.2542 494.431 97.459 494.342C97.6638 494.253 97.8437 494.114 97.9826 493.939C98.1212 493.777 98.2094 493.577 98.2363 493.365C98.2632 493.153 98.2278 492.938 98.1342 492.746C98.0899 492.661 98.0323 492.584 97.9637 492.518C97.7471 492.342 97.5041 492.202 97.2436 492.101C96.9783 491.988 96.7509 491.855 96.7509 491.779C97.1793 491.718 97.6161 491.791 98.0016 491.988C98.2704 492.099 98.4994 492.288 98.6584 492.532C98.8173 492.775 98.8988 493.061 98.8922 493.352C98.8841 493.641 98.81 493.925 98.6753 494.181C98.5406 494.437 98.349 494.659 98.1153 494.83C97.7968 495.035 97.4321 495.156 97.0546 495.182C96.677 495.209 96.2989 495.14 95.9551 494.982C95.5824 494.874 95.2517 494.655 95.0077 494.353C94.7637 494.051 94.6182 493.682 94.5908 493.295C94.6213 493.031 94.7192 492.779 94.8752 492.563C95.0311 492.347 95.2399 492.175 95.4814 492.064C95.8973 491.868 96.3485 491.758 96.8078 491.741Z" fill="black"/>
<path fill-rule="evenodd" clip-rule="evenodd" d="M95.5382 493.693C95.1935 493.686 94.8531 493.615 94.534 493.485C93.3753 493.234 92.2994 492.693 91.4074 491.912C90.6397 491.413 90.0909 490.641 89.8725 489.752C89.8257 489.494 89.8408 489.23 89.9166 488.979C89.9923 488.729 90.1266 488.5 90.3083 488.312C90.6998 487.985 91.1659 487.761 91.6652 487.658C92.1644 487.556 92.6813 487.579 93.1696 487.724C94.1286 487.912 95.0305 488.32 95.8035 488.918C95.9769 489.046 96.1415 489.185 96.2962 489.335C96.7288 489.721 97.0329 490.23 97.1679 490.794C97.1679 491.457 96.8078 491.798 96.732 491.741C96.7809 491.443 96.7506 491.138 96.6442 490.855C96.5377 490.572 96.3589 490.323 96.1257 490.131C95.571 489.617 94.9294 489.207 94.2308 488.918C93.5775 488.631 92.8778 488.464 92.1653 488.425C91.2558 488.425 90.422 488.899 90.441 489.562C90.4599 490.226 91.2368 491.021 91.8811 491.647C92.362 492.11 92.889 492.523 93.4539 492.878C94.1045 493.252 94.807 493.526 95.5382 493.693Z" fill="black"/>
<path fill-rule="evenodd" clip-rule="evenodd" d="M95.6708 493.826C95.8034 494.073 95.8224 494.433 95.9361 494.717C96.4056 495.651 97.0949 496.457 97.9446 497.066C98.5705 497.458 99.2649 497.728 99.9911 497.862C100.352 497.892 100.714 497.84 101.052 497.711C101.371 497.578 101.635 497.34 101.801 497.037C101.966 496.734 102.023 496.383 101.962 496.043C101.928 495.323 101.615 494.643 101.09 494.148C100.976 494.033 100.849 493.931 100.711 493.845C100.356 493.622 99.965 493.462 99.5553 493.371C99.1574 493.258 98.8163 493.163 98.7595 493.049C99.0545 492.905 99.3786 492.83 99.7069 492.83C100.035 492.83 100.359 492.905 100.654 493.049C101.385 493.341 101.98 493.895 102.322 494.603C102.672 495.307 102.772 496.109 102.606 496.877C102.546 497.161 102.43 497.429 102.264 497.667C102.098 497.904 101.885 498.106 101.64 498.26C101.15 498.515 100.597 498.62 100.048 498.563C99.0549 498.467 98.1188 498.055 97.3762 497.389C96.8809 496.936 96.4814 496.388 96.2014 495.778C95.8987 495.168 95.7185 494.505 95.6708 493.826Z" fill="black"/>
<path fill-rule="evenodd" clip-rule="evenodd" d="M95.5382 493.295C95.2289 493.314 94.9189 493.314 94.6097 493.295C93.5971 493.418 92.6657 493.911 91.9947 494.679C91.5929 495.268 91.3995 495.975 91.4452 496.687C91.5132 497.018 91.6781 497.322 91.9189 497.559C92.1217 497.814 92.387 498.013 92.6891 498.136C92.9911 498.259 93.3198 498.301 93.6433 498.26C94.2949 498.038 94.8328 497.568 95.1402 496.952C95.2335 496.814 95.3158 496.668 95.3866 496.517C95.5597 496.136 95.7054 495.743 95.8224 495.342C95.955 494.925 96.0687 494.603 96.2014 494.546C96.4136 495.16 96.4136 495.827 96.2014 496.441C96.0066 497.149 95.6424 497.8 95.1402 498.336C94.8654 498.658 94.5109 498.903 94.1119 499.046C93.713 499.189 93.2835 499.225 92.8664 499.151C92.3142 499.047 91.8079 498.774 91.4175 498.37C91.0271 497.966 90.7719 497.451 90.6872 496.896C90.6267 496.381 90.6877 495.859 90.8654 495.372C91.0431 494.885 91.3326 494.446 91.7105 494.091C92.244 493.626 92.9033 493.329 93.6054 493.238C94.2466 493.123 94.9048 493.143 95.5382 493.295Z" fill="black"/>
<path fill-rule="evenodd" clip-rule="evenodd" d="M87.8829 551.108C87.7863 550.781 87.7291 550.444 87.7124 550.104C87.4196 548.992 86.9731 547.927 86.3859 546.939C85.9216 546.26 85.3951 545.626 84.8132 545.044C84.6984 544.904 84.5484 544.797 84.3787 544.734C84.2089 544.67 84.0253 544.653 83.8468 544.684C83.1836 544.817 83.6952 545.897 83.9984 546.579C84.3617 547.363 84.8268 548.096 85.3816 548.758L85.7606 549.194C86.0859 549.558 86.4408 549.894 86.8218 550.199C87.1628 550.54 87.3902 550.862 87.3523 551.013C86.6912 550.822 86.0907 550.463 85.609 549.971C84.4284 548.913 83.5407 547.569 83.032 546.068C82.9337 545.799 82.87 545.519 82.8425 545.234C82.8186 545.047 82.8425 544.856 82.9121 544.68C82.9817 544.505 83.0946 544.35 83.2404 544.23C83.5289 544.024 83.8847 543.934 84.2363 543.98C84.5879 544.026 84.9091 544.203 85.1353 544.476C85.8966 545.181 86.5367 546.007 87.0302 546.92C87.3275 547.527 87.5624 548.161 87.7313 548.815C87.8548 549.573 87.9055 550.341 87.8829 551.108Z" fill="black"/>
<path d="M306.402 296.018L300.717 310.362L298.822 326.81V341.78L297.287 348.81L298.974 368.915L302.972 385.305L299.675 391.255L302.347 408.442L301.873 420.115L298.708 443.062L302.65 464.038L302.839 477.587H339.032L337.781 451.646L339.373 434.705L337.345 414.619L340.358 396.561L338.634 390.876L340.945 369.71L341.609 349.284L340.775 326.981L334.863 296.852C334.863 296.852 315.554 298.121 306.402 296.018Z" fill="#F1FAEE"/>
<path d="M83.5436 689.947C83.3167 689.967 83.0884 689.967 82.8615 689.947C78.1053 689.947 24.3283 689.436 47.6544 696.542C72.0417 703.988 157.558 704.405 196.479 701.089C227.07 698.829 257.821 700.178 288.097 705.106C309.073 708.517 353.187 714.24 370.544 705.239C381.401 699.554 401.051 700.331 418.882 702.662C456.168 707.738 493.911 708.558 531.382 705.106C562.25 702.112 580.649 692.714 531.382 688.678C531.081 688.656 530.783 688.606 530.491 688.526L509.648 683.315C506.559 682.86 502.94 684.642 500.382 686.252C499.368 686.903 498.174 687.215 496.972 687.144C495.77 687.072 494.622 686.621 493.693 685.854C492.929 685.226 492.015 684.808 491.04 684.642L448.026 677.27C447.723 677.252 447.419 677.252 447.116 677.27L247.054 675.811L158.43 674.428C157.846 674.409 157.264 674.486 156.705 674.655L118.618 686.025C118.29 686.123 117.954 686.193 117.614 686.233L83.5436 689.947Z" fill="#FFD6B9"/>
<path opacity="0.33" d="M129.533 681.363H128.983C125.193 681.363 81.8383 680.908 100.56 687.048C120.21 693.433 189.108 693.793 220.412 690.951C245.041 689.008 269.818 690.16 294.161 694.381C311.044 697.318 346.574 702.226 360.482 694.514C369.217 689.682 385.116 690.288 399.422 692.296C429.45 696.655 459.896 697.355 490.092 694.381C514.953 691.823 529.715 683.751 490.092 680.264C489.844 680.245 489.597 680.207 489.353 680.15L472.508 675.659C469.801 675.619 467.163 676.516 465.042 678.198C464.236 678.743 463.273 679.004 462.303 678.943C461.332 678.881 460.41 678.499 459.68 677.857C459.079 677.315 458.336 676.953 457.538 676.815L422.9 670.467C422.654 670.449 422.407 670.449 422.161 670.467L261.095 669.198L189.733 668.004C189.265 668.006 188.799 668.076 188.35 668.212L157.672 678.009L156.876 678.18L129.533 681.363Z" fill="#DDB499"/>
<path d="M163.47 310.646L175.976 319.42C176.872 320.049 177.926 320.413 179.019 320.47C180.111 320.527 181.198 320.275 182.154 319.742L192.651 313.849C198.876 310.375 205.781 308.293 212.889 307.747C228.958 306.572 258.139 306.175 274.549 316.634C275.119 316.991 275.802 317.122 276.464 317.003C277.125 316.884 277.719 316.523 278.13 315.99C278.524 315.502 278.738 314.893 278.738 314.266C278.738 313.638 278.524 313.03 278.13 312.541C273.639 307.179 257.021 291.508 213.704 288.078C198.288 286.71 182.891 290.897 170.292 299.883C167.627 301.781 165.186 303.974 163.015 306.421C162.754 306.722 162.557 307.074 162.437 307.454C162.318 307.835 162.278 308.236 162.321 308.633C162.364 309.029 162.488 309.413 162.686 309.76C162.883 310.106 163.15 310.408 163.47 310.646Z" fill="#F1FAEE"/>
<path d="M185.621 327.511C193.535 332.455 202.492 335.484 211.781 336.359C221.071 337.234 230.436 335.93 239.133 332.551C270.02 321.182 280.176 328.06 280.176 328.06C280.176 328.06 219.881 379.583 185.621 327.511Z" fill="#F1FAEE"/>
<path d="M196.384 477.397C204.614 479.603 213.271 479.679 221.538 477.617C229.806 475.555 237.413 471.423 243.643 465.611C265.927 445.468 276.974 448.746 276.974 448.746C276.974 448.746 243.756 515.617 196.384 477.397Z" fill="#F1FAEE"/>
<path d="M176.128 440.503C176.128 440.503 204.021 451.607 235.836 433.663C267.651 415.718 280.082 420.228 280.082 420.228C280.082 420.228 223.387 484.143 176.128 440.503Z" fill="#F1FAEE"/>
<path d="M187.592 375.395C187.592 375.395 241.123 408.631 278.717 351.14C278.717 351.14 255.979 366.11 235.476 365.75C214.973 365.39 187.592 375.395 187.592 375.395Z" fill="#F1FAEE"/>
<path d="M180.714 413.823C180.596 413.453 180.557 413.062 180.598 412.675C180.638 412.288 180.759 411.914 180.951 411.576C181.143 411.238 181.403 410.944 181.714 410.711C182.025 410.478 182.382 410.312 182.76 410.223C195.039 407.229 253.06 393.169 277.505 390.876C277.986 390.832 278.471 390.903 278.92 391.084C279.368 391.266 279.766 391.552 280.082 391.918C280.42 392.307 280.656 392.775 280.766 393.279C280.876 393.782 280.858 394.306 280.712 394.8C280.567 395.295 280.299 395.745 279.934 396.109C279.569 396.473 279.118 396.739 278.623 396.883C267.253 400.104 238.11 409.162 220.847 421.081C201.728 434.269 183.575 421.952 180.714 413.823Z" fill="#F1FAEE"/>
<path d="M120.683 457.653C120.683 457.653 90.6304 417.386 154.697 339.809C154.697 339.809 170.519 321.05 181.756 335.205C189.695 345.229 163.944 386.139 146.416 411.853C137.529 424.89 130.575 430.499 120.702 457.653H120.683Z" fill="#F1FAEE"/>
<path d="M118.125 460.476C118.125 460.476 122.844 489.449 140.997 510.634C159.15 531.818 158.354 557.911 157.463 561.322C157.008 562.989 156.44 564.657 154.754 565.017C150.964 565.813 142.854 562.042 128.604 532.406C107.097 487.762 118.125 460.476 118.125 460.476Z" fill="#F1FAEE"/>
<path d="M306.402 296.018C306.402 296.018 288.324 304.564 288.116 313.868C287.908 323.172 298.292 331.225 318.737 327.132" fill="#F1FAEE"/>
<path d="M298.708 326.81C298.708 326.81 288.457 334.541 290.522 341.154C291.773 345.172 295.449 348.279 301.759 349.359" fill="#F1FAEE"/>
<path d="M301.513 456.686C301.513 456.686 291.262 464.417 293.327 471.03C295.392 477.643 303.976 481.774 320.102 478.477" fill="#F1FAEE"/>
<path d="M298.197 348.412C298.197 348.412 288.457 355.84 288.116 363.817C287.889 368.914 298.595 369.218 306.402 368.763" fill="#F1FAEE"/>
<path d="M298.936 368.915C298.936 368.915 286.808 380.284 295.354 387.523C303.9 394.761 315.876 389.74 315.876 389.74" fill="#F1FAEE"/>
<path d="M300.149 390.858C300.149 390.858 289.878 398.589 291.944 405.202C294.009 411.815 301.418 416.572 317.6 413.369" fill="#F1FAEE"/>
<path d="M302.29 413.823C302.29 413.823 292.531 421.251 292.19 429.229C291.849 437.206 318.453 433.416 318.453 433.416" fill="#F1FAEE"/>
<path d="M300.281 434.327C300.281 434.327 288.154 445.696 296.7 452.934C305.246 460.173 317.241 455.151 317.241 455.151" fill="#F1FAEE"/>
<path d="M475.653 310.968L463.128 319.742C462.239 320.379 461.186 320.747 460.094 320.801C459.001 320.855 457.917 320.592 456.97 320.045L446.453 314.171C440.244 310.675 433.341 308.592 426.235 308.069C410.166 306.894 380.985 306.497 364.575 316.956C364.002 317.304 363.322 317.431 362.662 317.312C362.003 317.193 361.409 316.838 360.993 316.312C360.598 315.821 360.383 315.209 360.383 314.578C360.383 313.948 360.598 313.336 360.993 312.844C365.484 307.501 382.102 291.83 425.42 288.4C440.835 287.032 456.232 291.219 468.832 300.206C471.501 302.097 473.942 304.291 476.108 306.743C476.37 307.044 476.566 307.396 476.686 307.776C476.805 308.157 476.845 308.558 476.802 308.955C476.76 309.351 476.636 309.735 476.438 310.082C476.24 310.428 475.973 310.73 475.653 310.968Z" fill="#F1FAEE"/>
<path d="M453.502 327.909C445.585 332.854 436.624 335.883 427.331 336.755C418.038 337.627 408.669 336.317 399.971 332.931C369.104 321.562 358.947 328.459 358.947 328.459C358.947 328.459 419.242 379.981 453.502 327.909Z" fill="#F1FAEE"/>
<path d="M442.72 477.72C434.487 479.926 425.828 480.001 417.558 477.94C409.287 475.878 401.677 471.746 395.443 465.933C373.159 445.772 362.131 449.069 362.131 449.069C362.131 449.069 395.348 515.996 442.72 477.72Z" fill="#F1FAEE"/>
<path d="M462.995 440.882C462.995 440.882 435.14 452.005 403.287 434.136C371.434 416.268 359.042 420.702 359.042 420.702C359.042 420.702 415.737 484.541 462.995 440.882Z" fill="#F1FAEE"/>
<path d="M451.512 375.755C451.512 375.755 398.001 408.991 360.406 351.481C360.406 351.481 383.145 366.47 403.647 366.11C424.15 365.75 451.512 375.755 451.512 375.755Z" fill="#F1FAEE"/>
<path d="M458.41 414.202C458.527 413.833 458.566 413.443 458.525 413.058C458.484 412.672 458.364 412.3 458.172 411.963C457.979 411.626 457.719 411.333 457.408 411.102C457.097 410.871 456.741 410.707 456.363 410.621C444.066 407.608 386.063 393.567 361.619 391.274C361.137 391.23 360.652 391.301 360.204 391.482C359.756 391.664 359.357 391.95 359.042 392.316C358.703 392.705 358.468 393.173 358.358 393.677C358.247 394.18 358.266 394.704 358.411 395.198C358.557 395.693 358.824 396.143 359.189 396.507C359.555 396.871 360.006 397.137 360.501 397.281C371.87 400.502 401.014 409.56 418.276 421.479C437.377 434.667 455.549 422.331 458.41 414.202Z" fill="#F1FAEE"/>
<path d="M518.516 458.05C518.516 458.05 548.569 417.784 484.521 340.207C484.521 340.207 468.699 321.429 457.462 335.602C449.504 345.608 475.274 386.537 492.802 412.251C501.689 425.288 508.643 430.897 518.516 458.05Z" fill="#F1FAEE"/>
<path d="M520.998 460.874C520.998 460.874 516.28 489.846 498.127 511.031C479.974 532.216 480.751 558.309 481.66 561.701C482.096 563.387 482.683 565.055 484.37 565.396C488.16 566.211 496.27 562.421 510.519 532.804C532.026 488.16 520.998 460.874 520.998 460.874Z" fill="#F1FAEE"/>
<path d="M334.162 296.928C334.162 296.928 350.799 304.962 351.007 314.266C351.159 320.822 346.024 326.772 335.848 328.25" fill="#F1FAEE"/>
<path d="M340.396 327.208C340.396 327.208 350.647 334.939 348.582 341.552C346.517 348.165 337.933 352.296 321.807 348.999" fill="#F1FAEE"/>
<path d="M337.611 457.084C337.611 457.084 347.862 464.815 345.797 471.428C343.731 478.041 335.147 482.172 319.022 478.856" fill="#F1FAEE"/>
<path d="M340.926 348.867C340.926 348.867 350.666 356.276 351.007 364.272C351.348 372.269 324.744 368.46 324.744 368.46" fill="#F1FAEE"/>
<path d="M340.188 369.313C340.188 369.313 352.315 380.682 343.769 387.921C341.664 389.716 339.132 390.936 336.417 391.464" fill="#F1FAEE"/>
<path d="M338.975 391.256C338.975 391.256 349.245 398.987 347.161 405.6C345.474 411.019 339.411 414.771 328.439 414.127" fill="#F1FAEE"/>
<path d="M336.834 414.221C336.834 414.221 346.573 421.63 346.914 429.627C347.085 433.416 341.23 434.553 334.977 434.705" fill="#F1FAEE"/>
<path d="M338.823 434.724C338.823 434.724 350.951 446.094 342.424 453.332C339.819 455.505 336.612 456.827 333.233 457.122" fill="#F1FAEE"/>
<path d="M271.46 223.52L268.542 235.875C268.542 235.875 272.654 241.01 281.048 238.546L283.644 227.177" fill="#F1FAEE"/>
<path d="M291.508 261.133L293.024 252.587C293.024 252.587 288.571 247.774 280.366 250.806L279.38 256.699" fill="#F1FAEE"/>
<path d="M351.765 259.579L349.188 250.787C349.188 250.787 353.186 245.576 361.638 247.85L363.533 254.274" fill="#F1FAEE"/>
<path d="M310.078 265.169L311.328 255.486C311.328 255.486 306.667 250.882 298.613 254.292L297.477 262.801" fill="#F1FAEE"/>
<path d="M328.288 265.492L328.553 256.339C328.553 256.339 323.456 251.621 315.725 255.885L315.402 265.245" fill="#F1FAEE"/>
<path d="M346.573 261.531L345.209 252.492C345.209 252.492 339.354 248.703 332.513 254.387L334.029 264.904" fill="#F1FAEE"/>
<path d="M287.131 228.352L285.785 240.403C285.785 240.403 290.503 244.97 298.519 241.464L299.675 230.455" fill="#F1FAEE"/>
<path d="M304.185 231.25L303.73 243.359C303.73 243.359 308.751 247.565 316.501 243.472L316.843 231.364" fill="#F1FAEE"/>
<path d="M321.978 231.384L322.394 242.488C322.394 242.488 327.738 246.278 335.147 241.654L334.654 230.588" fill="#F1FAEE"/>
<path d="M337.516 229.868L339.524 240.29C339.524 240.29 345.379 243.246 352.012 237.523L350.117 227.632" fill="#F1FAEE"/>
<path d="M353.66 226.987L358.075 238.186C358.075 238.186 364.385 240.081 369.843 233.165L366.053 223.804" fill="#F1FAEE"/>
<path d="M278.528 256.339C268.867 251.789 260.961 244.202 256.017 234.737C254.957 232.774 253.407 231.118 251.518 229.933C249.628 228.747 247.463 228.072 245.235 227.972L224.77 226.987L241.104 258.253C242.385 260.659 244.295 262.673 246.631 264.078C248.968 265.483 251.642 266.227 254.368 266.23C258.84 266.23 265.851 269.129 276.425 279.494C279.28 282.316 282.402 284.855 285.747 287.074C296.091 294.084 308.369 297.682 320.86 297.363H321.637C334.128 297.682 346.406 294.084 356.749 287.074C360.094 284.855 363.216 282.316 366.072 279.494C376.645 269.148 383.656 266.23 388.128 266.23C390.855 266.227 393.529 265.483 395.865 264.078C398.201 262.673 400.112 260.659 401.393 258.253L417.727 226.987L395.954 227.461C393.799 227.517 391.691 228.11 389.822 229.185C387.953 230.26 386.381 231.784 385.248 233.619C380.621 240.577 374.803 246.664 368.061 251.601C354.21 260.185 324.687 276.178 278.528 256.339Z" fill="#F1FAEE"/>
<path d="M374.352 219.901C309.528 245.254 263.122 219.503 263.122 219.503L267.424 217.797C267.424 217.797 199.321 239.626 215.959 175.049C216.982 171.169 218.287 167.369 219.862 163.679C222.913 156.498 228.692 140.164 223.803 129.457L220.298 147.345C220.208 147.785 219.988 148.189 219.667 148.503C219.347 148.818 218.939 149.029 218.497 149.111C218.056 149.192 217.6 149.14 217.188 148.96C216.776 148.781 216.427 148.482 216.186 148.103C208.777 136.071 192.216 101.356 216.337 60.5402C225.436 45.4322 238.104 32.7895 253.231 23.7225C269.333 13.8837 287.003 6.87851 305.473 3.01138C310.094 2.07552 314.799 1.61833 319.514 1.64706C324.235 1.61743 328.947 2.07462 333.574 3.01138C352.653 7.00959 370.873 14.3552 387.389 24.7079C401.49 33.411 413.359 45.2929 422.047 59.4033C447.173 100.731 430.365 135.976 422.881 148.122C421.819 149.846 419.091 149.392 418.693 146.909L415.263 129.476C410.431 140.088 416.078 156.232 419.148 163.584C420.768 167.386 422.111 171.299 423.165 175.295C439.631 239.721 371.662 217.873 371.662 217.873L374.352 219.901Z" fill="#F1FAEE"/>
<path d="M239.967 131.181C235.684 141.092 225.243 171.353 253.799 178.042C259.854 179.363 266.126 179.318 272.161 177.909C312.276 169.117 298.803 136.335 294.066 127.013C293.687 126.267 293.097 125.65 292.369 125.238C291.64 124.827 290.807 124.64 289.973 124.701L244.723 127.808C243.695 127.874 242.706 128.225 241.866 128.82C241.027 129.416 240.369 130.233 239.967 131.181Z" fill="#1B1633"/>
<path d="M398.569 131.181C402.852 141.092 413.292 171.353 384.736 178.042C378.682 179.363 372.409 179.318 366.375 177.909C326.26 169.117 339.714 136.335 344.47 127.013C344.849 126.267 345.439 125.65 346.167 125.238C346.895 124.827 347.729 124.64 348.563 124.701L393.813 127.808C394.84 127.874 395.83 128.225 396.669 128.82C397.509 129.416 398.167 130.233 398.569 131.181Z" fill="#1B1633"/>
<path d="M320.746 150.775C320.746 150.775 315.175 169.572 305.435 181.358C295.695 193.145 300.262 203.889 300.262 203.889C300.262 203.889 306.667 201.994 313.526 208.853C318.529 213.837 329.235 209.876 334.635 207.394C335.832 206.843 336.874 206.005 337.667 204.953C338.461 203.902 338.982 202.67 339.183 201.368C339.944 195.332 338.605 189.217 335.393 184.049C328.174 171.24 323.058 162.959 320.746 150.775Z" fill="#1B1633"/>
<path d="M477.453 475.54H161.67C155.694 475.54 150.85 480.385 150.85 486.36V670.013C150.85 675.989 155.694 680.833 161.67 680.833H477.453C483.429 680.833 488.273 675.989 488.273 670.013V486.36C488.273 480.385 483.429 475.54 477.453 475.54Z" fill="#E0E0E0"/>
<path d="M488.728 623.209V670.789C488.728 673.654 487.59 676.401 485.565 678.427C483.539 680.452 480.792 681.59 477.927 681.59H162.125C159.258 681.59 156.509 680.453 154.481 678.428C152.452 676.403 151.31 673.656 151.305 670.789" stroke="#7C7C7C" stroke-width="1.89489" stroke-miterlimit="10" stroke-linecap="round"/>
<path d="M130.954 687.824C130.954 687.824 6.4974 706.773 4.43197 582.809C4.43197 582.809 3.80666 566.343 7.95647 565.111C12.1063 563.879 19.3258 568.541 26.3559 588.589C32.6848 606.666 43.2962 653.906 142.115 686.991L130.954 687.824Z" fill="#E5AC62"/>
<path d="M132.47 680.832C132.47 680.832 85.3248 655.706 80.9286 599.485C76.5325 543.263 77.0062 464.455 58.3226 468.244C39.639 472.034 29.3876 513.002 31.3015 543.055C32.8932 567.84 36.9861 602.573 65.6937 635.791C75.2991 646.688 86.4451 656.123 98.7785 663.797C135.88 687.389 142.115 686.536 142.115 686.536L132.47 680.832Z" fill="#B44538"/>
<path d="M167.279 687.673C168.624 688.829 172.452 691.558 160.192 688.393C137.453 682.5 78.4084 647.729 100.977 550.483C101.659 547.508 106.661 541.88 107.514 550.009C110.186 576.254 128.737 654.266 167.279 687.673Z" fill="#7F265B"/>
<path d="M450.622 686.404C451.967 687.56 455.795 690.288 443.535 687.124C420.796 681.25 361.751 646.46 384.3 549.214C385.002 546.239 389.985 540.611 390.857 548.74C393.453 574.965 412.08 652.997 450.622 686.404Z" fill="#7F265B"/>
<path d="M124.473 617.79C124.473 617.79 113.957 562.345 122.199 545.026C132.64 523.026 131.939 632.816 134.857 641.665C134.857 641.571 125.117 620.613 124.473 617.79Z" fill="#E5AC62"/>
<path d="M199.284 687.181C199.056 689.417 202.941 689.985 204.968 688.924C217.171 682.216 237.996 653.584 227.271 608.581C215.333 558.347 201.898 661.789 199.284 687.181Z" fill="#B44538"/>
<path d="M279.021 687.919C278.661 689.17 280.65 689.814 281.787 689.454C288.912 686.877 302.877 672.722 302.025 646.213C301.077 616.615 283.095 673.821 279.021 687.919Z" fill="#7F265B"/>
<path d="M206.617 689.947C206.617 689.947 174.403 698.209 179.614 599.276C184.825 500.344 192.879 638.141 192.879 638.141C192.879 638.141 194.774 686.991 206.617 689.947Z" fill="#7F265B"/>
<path d="M455.511 688.203C455.511 688.203 423.298 696.465 428.509 597.533C433.719 498.601 441.773 636.378 441.773 636.378C441.773 636.378 443.668 685.171 455.511 688.203Z" fill="#7F265B"/>
<path d="M204.419 689.454C204.419 689.454 208.625 644.753 233.278 627.529C255.524 612.01 225.243 674.427 211.581 689.132C210.103 690.742 206.01 690.25 204.419 689.454Z" fill="#E5AC62"/>
<path d="M254.861 684.926C254.861 684.926 259.048 640.225 283.72 623.001C305.966 607.463 275.666 669.88 262.023 684.585C260.526 686.157 256.433 685.703 254.861 684.926Z" fill="#E5AC62"/>
<path d="M482.115 690.098C482.115 690.098 565.092 628.704 593.819 640.263C622.545 651.821 501.878 692.77 482.115 690.098Z" fill="#B44538"/>
<path d="M468.112 690.97C468.112 690.97 504.493 659.818 523.234 621.238C541.974 582.658 568.162 529.734 619.987 531.098C671.812 532.463 532.614 651.822 532.614 651.822C532.614 651.822 506.369 677.649 482.191 689.113C481.433 689.473 480.732 689.89 480.011 690.307C478.248 691.421 476.23 692.066 474.148 692.182C472.065 692.298 469.988 691.881 468.112 690.97Z" fill="#E5AC62"/>
<path d="M452.195 690.213C452.195 690.213 474.1 634.996 482.304 616.047C490.13 597.856 518.307 559.314 533.959 558.707C550.52 558.082 475.957 678.957 464.227 690.251C464.227 690.213 460.911 686.158 452.195 690.213Z" fill="#7F265B"/>
<path d="M452.441 689.511C452.441 689.511 423.771 656.255 448.973 626.771C474.175 597.286 452.441 689.511 452.441 689.511Z" fill="#E5AC62"/>
<path d="M342.746 690.212C342.746 690.212 314.095 656.975 339.278 627.491C364.461 598.006 342.746 690.212 342.746 690.212Z" fill="#E5AC62"/>
<path d="M255.126 686.384C255.126 686.384 226.475 653.129 251.658 623.645C276.841 594.16 255.126 686.384 255.126 686.384Z" fill="#B44538"/>
<path d="M370.563 685.115C370.563 685.115 341.912 651.86 367.095 622.375C392.278 592.891 370.563 685.115 370.563 685.115Z" fill="#B44538"/>
<path d="M342.101 690.061C342.101 690.061 303.237 669.672 315.762 633.101C328.288 596.529 342.101 690.061 342.101 690.061Z" fill="#7F265B"/>
<path d="M438.665 687.465C438.665 687.465 418.674 680.681 424.908 667.474C424.908 667.474 435.993 654.399 441.64 683.239C441.75 683.714 441.758 684.207 441.665 684.686C441.571 685.164 441.378 685.618 441.097 686.017C440.816 686.416 440.454 686.751 440.035 687C439.616 687.25 439.149 687.408 438.665 687.465Z" fill="#B44538"/>
<path d="M316.975 686.65C316.975 686.65 296.965 679.866 303.218 666.658C303.218 666.658 314.303 653.584 319.931 682.424C320.044 682.898 320.055 683.39 319.964 683.869C319.873 684.348 319.682 684.802 319.402 685.201C319.123 685.6 318.762 685.936 318.344 686.185C317.926 686.435 317.459 686.593 316.975 686.65Z" fill="#B44538"/>
<path d="M251.582 687.465C251.582 687.465 231.591 680.681 237.826 667.474C237.826 667.474 248.911 654.399 254.557 683.239C254.664 683.714 254.67 684.206 254.576 684.683C254.481 685.161 254.287 685.613 254.007 686.011C253.727 686.409 253.366 686.744 252.948 686.995C252.531 687.245 252.066 687.405 251.582 687.465Z" fill="#7F265B"/>
<path d="M175.73 688.924C175.73 688.924 195.721 682.14 189.487 668.933C189.487 668.933 178.402 655.858 172.755 684.698C172.645 685.173 172.637 685.666 172.73 686.145C172.824 686.624 173.017 687.077 173.298 687.476C173.579 687.875 173.94 688.21 174.359 688.459C174.779 688.709 175.246 688.867 175.73 688.924Z" fill="#E5AC62"/>
<path d="M368.668 684.925C368.668 684.925 378.313 651.291 409.73 618.49C441.147 585.69 455.208 571.516 469.817 568.465C484.427 565.414 424.889 633.649 405.05 651.291C385.21 668.932 379.147 683.258 373.348 684.925C367.55 686.593 368.668 684.925 368.668 684.925Z" fill="#E5AC62"/>
<path d="M393.889 683.277C395.154 671.342 401.011 660.368 410.223 652.674C425.515 640.263 420.342 654.569 420.342 654.569C420.342 654.569 415.585 677.1 401.127 683.315C401.127 683.277 396.049 685.702 393.889 683.277Z" fill="#B44538"/>
<path d="M341.817 685.551C341.85 684.287 341.818 683.022 341.722 681.761C341.04 671.813 340.661 630.921 378.047 613.071C420.758 592.682 345.247 691.482 345.247 691.482C345.247 691.482 341.703 691.671 341.817 685.551Z" fill="#7F265B"/>
<path d="M255.467 686.309C255.467 686.309 270.967 648.79 284.212 645.663C297.458 642.537 265.661 684.926 265.661 684.926C265.661 684.926 259.598 687.787 255.467 686.309Z" fill="#B44538"/>
<path d="M175.806 686.839C176.071 689.416 171.523 690.061 169.231 688.848C154.905 681.117 130.48 648.259 143.062 596.339C157.103 538.507 172.736 657.601 175.806 686.839Z" fill="#B44538"/>
<path d="M305.151 592.303L307.065 610.248L315.478 611.707L326.506 611.043L333.802 609.528L335.469 592.303H305.151Z" fill="#F1FAEE"/>
<path d="M329.974 595.922V610.248C336.133 615.459 338.539 609.395 338.539 609.395L339.221 581.976C339.221 581.976 361.278 571.232 357.147 548.341C355.461 539.057 348.942 532.993 341.798 529.07C334.977 525.35 327.332 523.401 319.562 523.401C311.792 523.401 304.147 525.35 297.325 529.07C290.182 532.993 283.663 539.057 281.977 548.341C277.865 571.232 299.883 581.938 299.883 581.938L300.585 609.357C300.585 609.357 305 615.837 309.945 610.456L309.813 594.065" fill="#F1FAEE"/>
<path d="M309.945 610.495C309.945 610.495 316.558 616.388 319.552 610.495V594.994" fill="#F1FAEE"/>
<path d="M319.552 610.494C319.552 610.494 325.047 616.71 329.974 610.248L319.552 610.494Z" fill="#F1FAEE"/>
<path d="M302.062 555.902C301.736 555.84 301.401 555.847 301.078 555.924C300.755 556.001 300.452 556.145 300.189 556.347C299.925 556.55 299.708 556.805 299.551 557.098C299.394 557.39 299.3 557.713 299.277 558.044C298.822 564.164 298.822 583.17 309.604 580.877C322.451 578.129 316.767 564.657 309.073 559.029C307.026 557.431 304.619 556.358 302.062 555.902Z" fill="#1B1633"/>
<path d="M337.269 555.902C337.595 555.843 337.93 555.853 338.251 555.931C338.573 556.009 338.875 556.153 339.137 556.355C339.4 556.557 339.617 556.811 339.775 557.102C339.933 557.393 340.029 557.714 340.055 558.044C340.491 564.164 340.491 583.17 329.709 580.877C316.862 578.13 322.546 564.657 330.239 559.029C332.293 557.43 334.706 556.356 337.269 555.902Z" fill="#1B1633"/>
<path opacity="0.35" d="M222.666 156.138C222.666 156.138 202.353 199.341 221.946 214.879C240.422 227.67 267.424 217.835 267.424 217.835C267.424 217.835 212.908 222.061 222.666 156.138Z" fill="#AD7B40"/>
<path opacity="0.35" d="M169.325 314.759C169.325 314.759 227.271 279.04 278.13 315.99C278.13 315.99 277.069 318.605 273.506 315.99C269.944 313.375 250.01 304.621 217.209 307.596C205.955 308.095 195.044 311.617 185.621 317.791C185.621 317.791 180.354 323.096 175.332 318.965C170.311 314.835 169.325 314.759 169.325 314.759Z" fill="#AD7B40"/>
<path opacity="0.35" d="M186.682 329.084C186.682 329.084 210.691 363.742 280.176 328.061C280.176 328.061 253.212 351.444 225.224 350.8C197.237 350.155 186.682 329.084 186.682 329.084Z" fill="#AD7B40"/>
<path opacity="0.35" d="M188.179 375.698C188.179 375.698 243.131 390.175 278.13 351.993C278.13 351.993 261.19 383.808 226.039 384.851C226.039 384.87 204.76 386.063 188.179 375.698Z" fill="#AD7B40"/>
<path opacity="0.35" d="M180.714 413.823C180.714 413.823 195.437 429.74 251.867 402.643C273.639 394.287 267.708 398.967 280.176 393.775C280.176 393.775 281.692 396.617 276.785 397.413C271.877 398.209 248.835 406.888 248.835 406.888L224.808 418.522C224.808 418.522 204.722 435.576 186.91 421.327C184.409 419.22 182.31 416.677 180.714 413.823Z" fill="#AD7B40"/>
<path opacity="0.35" d="M178.326 442.455C178.326 442.455 218.763 468.472 279.684 420.645C279.684 420.645 248.077 455.473 213.912 455.757C213.912 455.757 196.233 457.671 178.326 442.455Z" fill="#AD7B40"/>
<path opacity="0.35" d="M120.683 457.652C120.683 457.652 117.974 429.058 145.829 384.87C149.714 378.899 154.155 373.309 159.093 368.176C175.237 350.913 173.911 331.282 174.877 330.278C174.877 330.278 185.261 334.068 183.234 342.216C181.926 348.469 176.317 368.46 156.156 397.281C135.994 426.102 129.627 437.074 129.627 437.074L120.683 457.652Z" fill="#AD7B40"/>
<path opacity="0.35" d="M118.391 461.953C118.391 461.953 123.583 490.111 139.822 509.231C144.429 514.728 148.208 520.87 151.04 527.46C150.376 540.118 152.745 531.837 150.528 538.261C150.528 538.261 150.774 555.466 150.263 564.012C145.696 563.595 147.212 542.183 145.734 539.075C140.675 528.502 134.365 516.242 123.981 498.525C118.391 489.183 116.894 467.051 118.391 461.953Z" fill="#AD7B40"/>
<path opacity="0.35" d="M416.002 156.346C416.002 156.346 436.334 199.549 416.741 215.087C398.247 227.859 371.264 218.024 371.264 218.024C371.264 218.024 425.78 222.269 416.002 156.346Z" fill="#AD7B40"/>
<path opacity="0.35" d="M469.343 314.986C469.343 314.986 411.416 279.268 360.558 316.218C360.558 316.218 361.6 318.814 365.181 316.218C368.762 313.622 388.659 304.849 421.459 307.824C432.714 308.321 443.626 311.842 453.047 318.018C453.047 318.018 458.315 323.305 463.355 319.193C468.396 315.081 469.343 314.986 469.343 314.986Z" fill="#AD7B40"/>
<path opacity="0.35" d="M452.005 329.312C452.005 329.312 427.978 363.969 358.511 328.289C358.511 328.289 385.456 351.671 413.463 351.027C441.469 350.383 452.005 329.312 452.005 329.312Z" fill="#AD7B40"/>
<path opacity="0.35" d="M450.489 375.925C450.489 375.925 395.537 390.383 360.558 352.201C360.558 352.201 377.498 384.035 412.648 385.078C412.648 385.078 433.909 386.29 450.489 375.925Z" fill="#AD7B40"/>
<path opacity="0.35" d="M457.879 414.032C457.879 414.032 443.156 429.949 386.726 402.871C364.973 394.495 370.885 399.195 358.435 394.003C358.435 394.003 356.919 396.845 361.827 397.641C366.735 398.437 389.758 407.115 389.758 407.115L413.823 418.693C413.823 418.693 433.909 435.747 451.721 421.479C454.212 419.394 456.3 416.87 457.879 414.032Z" fill="#AD7B40"/>
<path opacity="0.35" d="M460.343 442.664C460.343 442.664 419.982 468.7 358.985 420.873C358.985 420.873 390.592 455.701 424.776 455.966C424.776 455.966 442.455 457.899 460.343 442.664Z" fill="#AD7B40"/>
<path opacity="0.35" d="M518.004 457.88C518.004 457.88 520.695 429.286 492.84 385.097C488.991 379.126 484.581 373.536 479.67 368.403C463.545 351.141 464.871 331.491 463.886 330.505C463.886 330.505 453.502 334.295 455.548 342.424C456.837 348.677 462.446 368.687 482.608 397.509C502.769 426.33 509.136 437.301 509.136 437.301L518.004 457.88Z" fill="#AD7B40"/>
<path opacity="0.35" d="M520.278 462.162C520.278 462.162 515.105 490.339 498.866 509.44C494.79 514.294 491.363 519.657 488.671 525.395C489.259 540.914 488.273 556.623 488.387 564.657C488.387 564.657 493.029 564.866 492.935 550.578C492.925 544.683 494.219 538.86 496.724 533.524C501.102 524.163 506.616 512.68 514.707 498.829C520.278 489.411 521.794 467.26 520.278 462.162Z" fill="#AD7B40"/>
<path d="M234.604 149.676C234.604 149.676 234.225 167.45 241.445 171.922C248.664 176.394 254.709 180.979 270.418 178.27C286.126 175.56 293.895 166.9 293.895 166.9C293.895 166.9 300.603 158.032 300.528 148.179C300.528 148.179 298.178 166.843 275.231 172.073C268.462 173.518 261.495 173.794 254.633 172.888C235.552 169.496 234.604 149.676 234.604 149.676Z" fill="#0A0A16"/>
<path d="M404.178 149.676C404.178 149.676 404.576 167.45 397.337 171.922C390.099 176.394 384.073 180.979 368.365 178.27C352.656 175.56 344.906 166.9 344.906 166.9C344.906 166.9 338.198 158.032 338.255 148.179C338.255 148.179 340.604 166.843 363.552 172.073C370.321 173.518 377.287 173.794 384.149 172.888C403.25 169.496 404.178 149.676 404.178 149.676Z" fill="#0A0A16"/>
<path d="M300.262 203.889C300.262 203.889 297.287 197.825 301.304 187.934C305.321 178.043 307.747 182.458 311.707 172.036C313.685 166.552 316.099 161.236 318.927 156.138C318.927 156.138 314.815 180.335 310.381 183.121C305.947 185.906 298.898 195.93 303.768 200.592C308.637 205.253 308.922 197.996 314.72 206.163C320.518 214.33 330.751 209.005 330.751 209.005L322.982 211.753C322.982 211.753 317.638 212.814 312.029 207.508C310.518 205.982 308.653 204.853 306.6 204.222C304.547 203.591 302.37 203.476 300.262 203.889Z" fill="#0A0A16"/>
<path opacity="0.11" d="M216.186 147.288C216.186 147.288 190.472 114.317 213.419 65.0119C249.195 5.24707 314.076 1.83627 314.076 1.83627C314.076 1.83627 197.085 34.0494 223.803 128.642C220.734 158.278 216.091 144.578 216.186 147.288Z" fill="#E5AC62"/>
<path opacity="0.11" d="M423.089 148.52C423.089 148.52 448.822 115.549 425.874 66.2628C390.099 6.47904 325.237 3.08717 325.237 3.08717C325.237 3.08717 442.208 35.3003 415.49 129.893C418.56 159.51 423.203 145.81 423.089 148.52Z" fill="#E5AC62"/>
<path opacity="0.35" d="M258.916 266.325C258.916 266.325 272.483 274.17 277.334 280.48C282.185 286.79 299.144 296.53 312.787 296.928C326.431 297.326 332.892 297.913 346.497 292.551C357.279 288.325 366.451 279.608 369.786 276.16C370.818 275.098 371.94 274.128 373.14 273.261C376.079 270.975 379.255 269.012 382.614 267.405C383.58 267.102 380.321 265.51 366.223 275.478C349.472 287.245 315.592 295.791 277.675 277.088C275.923 276.216 274.287 275.127 272.805 273.848C263.52 265.814 264.43 270.399 258.916 266.325Z" fill="#AD7B40"/>
<path opacity="0.35" d="M293.27 304.811C293.27 304.811 275.458 320.747 304.033 327.947C315.857 331.491 339.676 331.491 348.089 322.263C353.66 315.63 299.201 334.617 293.27 304.811Z" fill="#AD7B40"/>
<path opacity="0.35" d="M290.996 336.152C290.996 336.152 283.928 352.183 319.42 350.8C354.911 349.416 348.487 340.112 348.487 340.112C348.487 340.112 295.392 355.954 290.996 336.152Z" fill="#AD7B40"/>
<path opacity="0.35" d="M348.487 357.053C348.487 357.053 362.737 372.913 323.323 370.165C323.323 370.165 298.386 370.772 291.11 367.512C283.833 364.253 289.31 359.061 289.31 359.061C289.31 359.061 312.863 377.157 348.487 357.053Z" fill="#AD7B40"/>
<path opacity="0.35" d="M292.19 379.507C292.19 379.507 289.253 393.586 315.535 391.464C315.535 391.464 338.274 396.542 345.853 385.59C353.433 374.637 310.987 399.233 292.19 378.919" fill="#AD7B40"/>
<path opacity="0.35" d="M291.716 402.644C291.716 402.644 288.665 416.874 320.708 415.434C352.751 413.994 346.933 402.738 346.933 402.738C346.933 402.738 304.886 418.978 291.716 402.644Z" fill="#AD7B40"/>
<path opacity="0.35" d="M293.649 424.662C293.649 424.662 282.128 436.316 317.6 433.455C317.6 433.455 336.17 439.139 345.455 431.56C354.74 423.98 298.917 436.373 293.649 424.662Z" fill="#AD7B40"/>
<path opacity="0.35" d="M249.328 475.54H256.225C264.408 467.68 271.381 458.651 276.917 448.747C267.703 460.257 255.908 469.436 242.487 475.54H249.328Z" fill="#AD7B40"/>
<path opacity="0.35" d="M382.557 475.54C374.527 467.728 367.672 458.792 362.206 449.012C371.227 460.325 382.737 469.404 395.84 475.54C389.17 475.275 388.754 475.408 382.557 475.54Z" fill="#AD7B40"/>
<path opacity="0.35" d="M293.801 445.127C293.801 445.127 290.011 458.24 316.786 457.16C343.56 456.079 342.253 455.795 344.811 450.205C347.369 444.615 303.483 459.282 293.801 445.127Z" fill="#AD7B40"/>
<path opacity="0.35" d="M294.104 466.804C294.104 466.804 291.451 472.622 298.424 475.748C302.574 475.748 307.576 475.748 317.24 475.445C335.109 474.725 340.964 477.131 343.314 475.312C344.489 474.403 344.261 473.74 345.209 471.883C347.672 466.35 303.768 480.94 294.104 466.804Z" fill="#AD7B40"/>
<path opacity="0.35" d="M271.46 223.52L283.644 227.196L281.654 235.988C281.654 235.988 281.313 229.356 271.46 223.52Z" fill="#AD7B40"/>
<path opacity="0.35" d="M286.278 235.988C287.844 234.12 289.834 232.654 292.082 231.711C294.33 230.769 296.771 230.377 299.201 230.569L287.453 227.859L286.278 236.273" fill="#AD7B40"/>
<path opacity="0.35" d="M303.73 234.757C303.73 234.757 311.309 232.217 316.748 235.211V231.062H304.071L303.73 234.757Z" fill="#AD7B40"/>
<path opacity="0.35" d="M322.11 234.34C322.11 234.34 329.33 231.232 334.806 233.79L334.484 230L322.432 230.531L322.11 234.34Z" fill="#AD7B40"/>
<path opacity="0.35" d="M338.823 236.632C338.823 236.632 347.369 227.688 350.041 227.632L337.516 229.868L338.823 236.632Z" fill="#AD7B40"/>
<path opacity="0.35" d="M353.66 226.987C353.66 226.987 364.272 225.793 368.592 230.038L365.655 222.705L353.66 226.987Z" fill="#AD7B40"/>
<path opacity="0.35" d="M279.759 254.728C279.759 254.728 288.286 258.196 292.285 257.021L291.565 261.133L278.774 256.415L279.759 254.728Z" fill="#AD7B40"/>
<path opacity="0.35" d="M297.856 259.579C301.943 261.456 306.517 262 310.93 261.133L310.286 265.169L297.42 262.801L297.856 259.579Z" fill="#AD7B40"/>
<path opacity="0.35" d="M315.402 262.365C315.402 262.365 322.83 264.488 328.458 262.365L328.288 265.549H315.402V262.365Z" fill="#AD7B40"/>
<path opacity="0.35" d="M333.593 261.702C337.972 262.124 342.375 261.199 346.213 259.049L346.877 261.702L334.029 264.791L333.593 261.702Z" fill="#AD7B40"/>
<path opacity="0.35" d="M350.894 256.756C355.12 255.727 359.096 253.858 362.585 251.261L363.476 254.008L351.557 260.053L350.894 256.756Z" fill="#AD7B40"/>
<path d="M150.907 519.521V485.015C150.907 485.015 152.707 475.54 160.893 475.54H191.42V476.962C182.775 477.189 174.159 478.076 165.649 479.614C163.173 480.176 160.925 481.474 159.2 483.338C157.475 485.201 156.354 487.543 155.985 490.055C154.356 500.61 152.006 519.578 152.006 519.578L150.907 519.521Z" fill="#F1FAEE"/>
<path d="M488.197 519.521V485.015C488.197 485.015 486.397 475.54 478.211 475.54H447.685V476.962C456.336 477.188 464.958 478.075 473.474 479.614C475.948 480.181 478.193 481.481 479.917 483.343C481.641 485.206 482.764 487.545 483.138 490.055C484.768 500.61 487.117 519.578 487.117 519.578L488.197 519.521Z" fill="#F1FAEE"/>
<path opacity="0.35" d="M285.728 568.466C285.728 568.466 285.728 572.047 299.883 581.976L300.509 606.61L299.732 599.258C297.847 590.857 294.554 582.835 289.992 575.534C287.15 570.721 287.453 572.616 285.728 568.466Z" fill="#AD7B40"/>
<path opacity="0.35" d="M353.338 568.466C353.338 568.466 353.338 572.047 339.164 581.976L338.539 606.61L339.316 599.258C341.208 590.859 344.501 582.839 349.056 575.534C351.917 570.721 351.614 572.616 353.338 568.466Z" fill="#AD7B40"/>
<path d="M605.453 550.635C605.453 550.635 603.937 552.852 601.171 556.831C599.788 558.84 598.082 561.284 596.036 564.051C593.989 566.817 591.734 570.057 589.081 573.525C583.87 580.479 577.447 588.589 570.132 597.439C568.238 599.656 566.343 601.854 564.448 604.146C562.553 606.439 560.469 608.751 558.384 611.082C554.253 615.781 549.819 620.556 545.309 625.369C540.8 630.182 536.214 634.844 531.742 639.183C529.544 641.406 527.352 643.548 525.167 645.607C522.969 647.672 520.865 649.738 518.762 651.689C510.33 659.515 502.58 666.356 495.91 671.927C492.613 674.769 489.524 677.213 486.852 679.393C484.18 681.572 481.85 683.429 479.917 684.907C476.127 687.901 473.948 689.53 473.948 689.53L479.86 684.831C481.755 683.315 484.086 681.477 486.738 679.26C489.391 677.043 492.423 674.598 495.739 671.68C502.39 665.996 510.121 659.193 518.478 651.367C520.581 649.472 522.684 647.35 524.864 645.285C527.043 643.219 529.241 641.078 531.439 638.842C535.911 634.484 540.383 629.803 544.987 625.028C549.592 620.253 553.912 615.554 558.043 610.76C560.14 608.448 562.168 606.142 564.126 603.843C566.021 601.55 568.01 599.352 569.81 597.135C577.182 588.324 583.624 580.214 588.854 573.298C591.526 569.868 593.819 566.666 595.865 563.823C597.912 560.981 599.655 558.631 601.057 556.642C603.881 552.814 605.453 550.635 605.453 550.635Z" fill="white"/>
<path d="M575.722 648.487C575.722 648.487 574.604 649.359 572.501 650.78C569.508 652.773 566.408 654.601 563.216 656.256C559.18 658.36 554.234 660.633 548.682 662.907C543.13 665.181 536.953 667.607 530.491 670.165L497.407 683.145L487.364 687.048C484.995 687.958 483.669 688.431 483.669 688.431L487.326 686.934L497.312 682.936L530.359 669.824C536.82 667.266 542.979 664.878 548.55 662.604C554.121 660.33 559.047 658.113 563.102 656.029C566.299 654.408 569.411 652.624 572.425 650.685C573.505 650.003 574.32 649.435 574.87 649.056L575.722 648.487Z" fill="white"/>
<path d="M453.919 632.835C453.919 632.835 453.767 633.593 453.445 634.976C453.123 636.359 452.687 638.349 452.176 640.831C450.855 647.28 449.937 653.805 449.428 660.368C449.428 662.263 449.22 664.158 449.201 666.052C449.182 667.947 449.201 669.615 449.201 671.301C449.311 674.257 449.583 677.205 450.015 680.131C450.167 681.382 450.394 682.5 450.565 683.485C450.736 684.471 450.925 685.38 451.096 686.006C451.418 687.389 451.569 688.147 451.569 688.147C451.569 688.147 451.342 687.408 451.001 686.025C450.769 685.201 450.58 684.366 450.432 683.523C450.224 682.538 449.978 681.42 449.807 680.15C449.347 677.219 449.044 674.265 448.897 671.301C448.897 669.634 448.765 667.872 448.897 666.052C449.03 664.233 448.992 662.263 449.106 660.368C449.592 653.788 450.555 647.253 451.986 640.812C452.517 638.33 453.009 636.341 453.369 634.976C453.729 633.612 453.919 632.835 453.919 632.835Z" fill="white"/>
<path d="M454.563 588.097C454.563 588.097 453.218 589.328 450.773 591.489C448.329 593.649 444.785 596.813 440.484 600.811C436.183 604.81 431.104 609.604 425.647 615.099C422.918 617.865 420.095 620.784 417.215 623.872C414.335 626.961 411.416 630.201 408.517 633.593C405.618 636.985 402.833 640.377 400.199 643.674C397.565 646.971 395.158 650.23 392.884 653.376C388.375 659.686 384.509 665.503 381.117 670.297C377.725 675.091 374.864 678.881 372.799 681.439C370.733 683.997 369.52 685.324 369.52 685.324L370.354 684.3L372.723 681.363C374.75 678.786 377.593 674.996 380.928 670.164C384.263 665.332 388.128 659.515 392.619 653.11C394.874 649.965 397.318 646.706 399.914 643.371C402.51 640.036 405.296 636.663 408.233 633.29C418.257 621.745 428.97 610.817 440.313 600.565C448.973 592.72 454.563 588.097 454.563 588.097Z" fill="white"/>
<path d="M258.461 622.982C258.461 622.982 258.233 623.664 257.779 624.877C257.324 626.089 256.699 627.871 255.998 630.088C255.296 632.305 254.557 634.958 253.856 637.951C253.534 639.448 253.174 641.021 252.909 642.67C252.644 644.318 252.359 646.024 252.113 647.786C251.867 649.548 251.715 651.254 251.601 652.921C251.488 654.589 251.412 656.199 251.336 657.734C251.336 660.804 251.336 663.57 251.431 665.882C251.526 668.194 251.715 670.07 251.848 671.377C251.98 672.685 252.056 673.386 252.056 673.386C252.056 673.386 251.924 672.666 251.753 671.377C251.582 670.089 251.374 668.213 251.222 665.901C251.071 663.589 250.976 660.804 251.033 657.715C251.033 656.18 251.033 654.57 251.26 652.902C251.488 651.235 251.563 649.51 251.753 647.729C251.942 645.948 252.246 644.261 252.568 642.613C252.89 640.964 253.212 639.392 253.553 637.876C254.273 634.882 255.05 632.191 255.789 630.012C256.528 627.833 257.172 626.052 257.684 624.839L258.461 622.982Z" fill="white"/>
<path d="M283.777 651.898C283.777 651.898 283.455 652.409 282.848 653.3L280.271 657.09L271.649 669.52L262.933 681.875L260.261 685.664L259.257 687.029C259.257 687.029 259.56 686.517 260.166 685.608L262.762 681.818L271.365 669.387L280.101 657.033L282.772 653.243C283.398 652.371 283.777 651.898 283.777 651.898Z" fill="white"/>
<path d="M55.518 512.111C55.518 512.111 55.518 512.699 55.2338 513.817C54.9496 514.935 54.7411 516.602 54.419 518.744C54.0969 520.885 53.6611 523.5 53.301 526.55C53.0736 528.066 52.9031 529.696 52.7325 531.439C52.562 533.183 52.3536 535.002 52.2209 536.934C52.0883 538.867 51.9367 540.895 51.842 542.998C51.7472 545.101 51.6904 547.3 51.6525 549.573C51.6146 551.847 51.6525 554.216 51.6525 556.622C51.6525 559.029 51.823 561.549 52.0693 564.088C52.4861 569.445 53.2201 574.773 54.2674 580.043C55.3526 585.684 56.8472 591.238 58.7394 596.661C60.6211 602.077 62.9274 607.336 65.6368 612.389C68.116 617.13 70.8682 621.724 73.8795 626.146C76.7787 630.353 79.5642 634.275 82.5392 637.8C85.5142 641.324 88.2239 644.564 90.7441 647.445C95.9361 653.129 100.332 657.658 103.402 660.709L106.964 664.214L108.196 665.446C108.196 665.446 106.434 663.797 103.345 660.785C100.256 657.772 95.7655 653.319 90.5735 647.52C87.9775 644.64 85.1731 641.457 82.3118 637.913C79.4505 634.37 76.6271 630.466 73.6142 626.26C70.5837 621.832 67.8125 617.232 65.3146 612.484C62.6126 607.397 60.3128 602.107 58.4362 596.661C56.5401 591.218 55.0393 585.646 53.9453 579.986C52.9432 574.718 52.241 569.398 51.842 564.05C51.5956 561.492 51.5767 558.991 51.444 556.471C51.3114 553.951 51.444 551.677 51.444 549.403C51.444 547.129 51.444 544.931 51.6714 542.809C51.8988 540.686 51.9177 538.678 52.0883 536.745C52.2588 534.812 52.4294 532.955 52.6189 531.25C52.8083 529.544 52.9978 527.877 53.2252 526.361C53.6042 523.291 54.059 520.676 54.4001 518.554C54.7411 516.432 55.0822 514.764 55.2907 513.646C55.4991 512.528 55.518 512.111 55.518 512.111Z" fill="white"/>
<path d="M15.2707 592.133L15.7065 593.592C16.0097 594.539 16.3887 595.96 17.014 597.76C17.6393 599.561 18.3783 601.759 19.3258 604.279C20.2732 606.799 21.5049 609.622 22.945 612.692C26.3335 619.881 30.3538 626.755 34.9586 633.233C40.6172 641.144 47.1378 648.402 54.4002 654.872C67.6862 666.604 83.1975 675.543 100.01 681.155C105.076 682.902 110.28 684.221 115.567 685.096C117.462 685.38 118.921 685.513 119.907 685.589L121.441 685.683C119.474 685.659 117.511 685.494 115.567 685.191C113.672 684.925 111.38 684.509 108.765 683.883C106.15 683.258 103.08 682.386 99.9534 681.363C92.3808 678.872 85.0493 675.701 78.0484 671.889C69.497 667.185 61.4847 661.562 54.1538 655.119C40.873 643.307 30.1713 628.884 22.7176 612.749C21.2775 609.66 20.1406 606.818 19.1742 604.298C18.2078 601.778 17.4688 599.58 16.9003 597.76C15.7634 594.179 15.2707 592.133 15.2707 592.133Z" fill="white"/>
<path d="M107.324 590.939C107.324 590.939 107.324 592.436 107.514 595.146C107.542 596.793 107.656 598.437 107.855 600.072C108.063 601.967 108.196 604.184 108.651 606.572C108.84 607.766 109.049 609.016 109.257 610.362C109.466 611.707 109.845 612.996 110.129 614.398C110.697 617.202 111.607 620.082 112.479 623.19C112.933 624.725 113.559 626.241 114.089 627.833L114.942 630.22L115.946 632.608C117.235 635.867 118.864 639.088 120.494 642.404C122.123 645.72 124.056 648.79 126.008 651.67L127.429 653.849C127.922 654.551 128.433 655.233 128.926 655.915C129.93 657.241 130.821 658.606 131.863 659.856C133.853 662.282 135.748 664.669 137.643 666.716C138.628 667.739 139.538 668.781 140.485 669.71L143.327 672.325C145.052 674.049 146.776 675.394 148.235 676.645C148.993 677.27 149.656 677.858 150.301 678.369L152.195 679.715L155.568 682.235C155.568 682.235 154.337 681.382 152.139 679.791C150.78 678.854 149.471 677.848 148.216 676.778C146.738 675.527 144.995 674.201 143.252 672.495L140.466 669.88C139.519 668.971 138.571 667.985 137.605 666.905C135.596 664.859 133.682 662.471 131.636 660.008C130.613 658.776 129.741 657.412 128.661 656.066L127.069 653.944L125.648 651.765C123.753 648.885 121.858 645.701 120.096 642.48C118.334 639.259 116.818 635.924 115.548 632.665L114.544 630.258L113.691 627.852C113.161 626.26 112.554 624.725 112.1 623.19C111.228 620.082 110.337 617.164 109.788 614.36C109.504 612.958 109.162 611.631 108.935 610.305C108.708 608.978 108.537 607.747 108.348 606.515C107.912 604.109 107.817 601.911 107.609 599.997C107.609 599.03 107.419 598.102 107.381 597.325V595.051C107.324 592.436 107.324 590.939 107.324 590.939Z" fill="white"/>
<path d="M237.617 632.096C237.617 632.096 237.162 632.854 236.291 634.18C235.419 635.506 234.149 637.439 232.634 639.865C229.602 644.678 225.566 651.423 221.473 659.079C217.38 666.734 214.026 673.859 211.714 679.051C210.577 681.666 209.649 683.769 209.042 685.247C208.436 686.725 208.057 687.502 208.057 687.502C208.057 687.502 209.27 684.205 211.506 678.975C213.741 673.745 217.058 666.583 221.151 658.908C225.243 651.234 229.336 644.526 232.52 639.751C234.074 637.363 235.362 635.45 236.31 634.066L237.617 632.096Z" fill="white"/>
<path d="M151.476 586.258C151.476 586.258 151.476 587.679 151.343 590.256C151.343 591.545 151.21 593.137 151.21 594.975C151.21 596.813 151.21 598.897 151.21 601.209C151.21 605.813 151.551 611.328 152.101 617.41C152.442 620.442 152.726 623.625 153.257 626.885C153.787 630.144 154.318 633.574 154.943 637.041C155.568 640.509 156.364 643.863 157.179 647.084C157.994 650.305 158.866 653.375 159.699 656.331C161.462 662.168 163.262 667.378 164.948 671.68C165.744 673.84 166.578 675.754 167.279 677.459C167.98 679.165 168.605 680.605 169.174 681.78C170.235 684.129 170.803 685.437 170.803 685.437L169.06 681.817C168.511 680.662 167.847 679.222 167.165 677.516C166.483 675.811 165.592 673.916 164.778 671.831C163.053 667.549 161.234 662.357 159.434 656.502C158.6 653.546 157.653 650.476 156.895 647.236C156.137 643.995 155.36 640.642 154.64 637.193C153.92 633.744 153.389 630.314 152.954 627.017C152.518 623.72 152.158 620.537 151.836 617.543C151.305 611.46 151.04 605.946 151.04 601.323C151.04 599.011 151.04 596.907 151.04 595.088C151.04 593.269 151.04 591.659 151.21 590.37C151.362 587.623 151.476 586.258 151.476 586.258Z" fill="white"/>
<path d="M282.867 133.589C282.867 133.589 282.412 134.062 281.541 134.858L277.865 138.212L265.87 149.392L253.989 160.761L250.408 164.191C249.574 165.006 249.081 165.442 249.081 165.442C249.081 165.442 249.517 164.968 250.351 164.134L253.856 160.61C256.831 157.654 261 153.617 265.643 149.24C270.285 144.863 274.586 140.941 277.713 138.136L281.503 134.858C282.356 134.005 282.867 133.589 282.867 133.589Z" fill="#EDEBFF"/>
<path d="M288.021 135.426L286.941 136.506L283.928 139.348L273.961 148.69L263.918 157.937L260.811 160.723L259.655 161.708L260.735 160.647L263.729 157.786L273.696 148.463L283.739 139.216L286.808 136.43L288.021 135.426Z" fill="#EDEBFF"/>
<path d="M284.307 146.625L283.284 147.648L280.423 150.358L270.948 159.283L261.379 168.113L258.442 170.766C257.76 171.391 257.343 171.732 257.343 171.732C257.343 171.732 257.703 171.353 258.385 170.709L261.227 167.981L270.702 159.056L280.271 150.225L283.189 147.573C283.909 146.947 284.307 146.625 284.307 146.625Z" fill="#EDEBFF"/>
<path d="M289.708 148.71C289.708 148.71 289.423 148.994 288.874 149.468L286.543 151.363C284.648 153.049 281.882 155.38 278.964 157.995L272.009 164.267C271.1 165.101 270.342 165.802 269.755 166.313C269.167 166.825 268.731 167.166 268.826 167.374C268.84 167.394 268.859 167.41 268.88 167.421C268.901 167.432 268.925 167.438 268.949 167.438C268.973 167.438 268.997 167.432 269.018 167.421C269.04 167.41 269.058 167.394 269.072 167.374C269.058 167.402 269.036 167.426 269.01 167.442C268.983 167.458 268.952 167.467 268.921 167.467C268.889 167.467 268.859 167.458 268.832 167.442C268.805 167.426 268.784 167.402 268.769 167.374C268.769 167.374 268.769 167.071 268.978 166.92L269.66 166.238L271.858 164.115C273.753 162.41 276.065 160.174 278.755 157.786C281.446 155.399 284.44 152.86 286.448 151.23L288.817 149.335C289.367 148.937 289.708 148.71 289.708 148.71Z" fill="#EDEBFF"/>
<path d="M269.698 138.003L268.655 139.007L265.756 141.679C263.312 143.953 259.958 147.117 256.282 150.623C252.606 154.128 249.328 157.388 246.959 159.737L244.173 162.523C243.51 163.167 243.112 163.508 243.112 163.508L244.098 162.447L246.826 159.586C249.138 157.198 252.397 153.901 256.054 150.395C259.712 146.89 263.141 143.763 265.529 141.546L268.485 138.931C269.281 138.325 269.698 138.003 269.698 138.003Z" fill="#EDEBFF"/>
<path d="M269.66 133.209C269.66 133.209 269.357 133.493 268.769 133.967L266.268 135.862C264.165 137.548 261.246 139.879 258.082 142.494C254.917 145.109 252.075 147.535 250.029 149.278L247.603 151.362L246.694 152.101C246.694 152.101 246.978 151.798 247.527 151.286L249.896 149.145C251.905 147.25 254.709 144.901 257.892 142.267C261.076 139.633 263.994 137.34 266.154 135.71L268.712 133.816L269.66 133.209Z" fill="#EDEBFF"/>
<path d="M263.918 129.552C263.918 129.552 263.558 129.874 262.857 130.423L259.977 132.849C257.532 134.857 254.292 137.662 250.635 140.883C246.978 144.104 243.927 147.136 241.691 149.353L239.038 151.987L238.053 152.935L238.962 151.911L241.539 149.202C243.738 146.928 246.845 143.877 250.426 140.656C254.008 137.434 257.362 134.649 259.901 132.678L262.857 130.404C263.501 129.817 263.918 129.552 263.918 129.552Z" fill="#EDEBFF"/>
<path d="M250.426 134.744C250.426 134.744 250.294 134.896 250.047 135.142L248.91 136.146L245.121 139.368L241.331 142.532L240.137 143.461C239.853 143.688 239.701 143.802 239.682 143.783C239.803 143.638 239.936 143.505 240.08 143.385L241.198 142.381L244.988 139.159L248.778 135.995L249.953 135.066L250.426 134.744Z" fill="#EDEBFF"/>
<path d="M294.255 151.173L293.554 151.836L291.659 153.579C290.011 155.038 287.756 157.104 285.312 159.415C282.867 161.727 280.688 163.868 279.115 165.441L277.22 167.336C276.785 167.772 276.519 167.999 276.519 167.999C276.519 167.999 276.728 167.715 277.145 167.26L278.907 165.365C280.423 163.755 282.583 161.576 285.027 159.264C287.472 156.952 289.784 154.925 291.47 153.579L293.498 151.912L294.255 151.173Z" fill="#EDEBFF"/>
<path d="M354.532 133.039C354.532 133.039 355.044 133.437 355.934 134.214L359.724 137.511C362.851 140.296 367.133 144.2 371.794 148.596C376.456 152.992 380.606 157.047 383.581 159.965L387.086 163.49C387.92 164.324 388.356 164.797 388.356 164.797C388.356 164.797 387.863 164.38 387.029 163.566L383.448 160.117L371.567 148.748L359.572 137.568L355.934 134.195L354.532 133.039Z" fill="#EDEBFF"/>
<path d="M349.397 134.876C349.397 134.876 349.813 135.218 350.534 135.862L353.603 138.647L363.646 147.894L373.613 157.236L376.607 160.079L377.687 161.159L376.531 160.154L373.481 157.369L363.438 148.122L353.471 138.799L350.458 135.938C349.757 135.274 349.397 134.876 349.397 134.876Z" fill="#EDEBFF"/>
<path d="M353.092 146.113C353.092 146.113 353.49 146.436 354.191 147.061L357.109 149.714L366.678 158.563L376.153 167.469L378.995 170.198C379.677 170.842 380.037 171.221 380.037 171.221C380.037 171.221 379.639 170.899 378.938 170.273L376.001 167.621L366.432 158.79L356.958 149.865L354.096 147.137L353.092 146.113Z" fill="#EDEBFF"/>
<path d="M347.691 148.141C347.691 148.141 348.032 148.368 348.601 148.823L350.969 150.718C352.978 152.366 355.707 154.659 358.663 157.274C361.619 159.889 364.234 162.333 366.11 164.115L368.289 166.256C368.535 166.464 368.838 166.805 368.554 166.957C368.27 167.109 368.345 166.767 368.383 166.805C368.421 166.843 368.383 166.957 368.554 166.919C368.724 166.881 368.554 166.54 368.232 166.332L365.977 164.247C364.082 162.504 361.429 160.097 358.397 157.501C355.365 154.905 352.713 152.537 350.818 150.869L348.487 148.88C347.975 148.425 347.691 148.141 347.691 148.141Z" fill="#EDEBFF"/>
<path d="M367.701 137.435C367.701 137.435 368.118 137.757 368.819 138.363L371.775 140.978C374.258 143.214 377.669 146.303 381.345 149.846C385.021 153.39 388.261 156.63 390.573 159.018L393.301 161.879C393.946 162.561 394.287 162.959 394.287 162.959C394.287 162.959 393.889 162.618 393.226 161.955L390.44 159.169C388.071 156.819 384.755 153.598 381.117 150.074C377.479 146.549 374.087 143.385 371.643 141.13L368.819 138.534C368.061 137.814 367.701 137.435 367.701 137.435Z" fill="#EDEBFF"/>
<path d="M367.739 132.66L368.687 133.323L371.245 135.218C373.405 136.847 376.342 139.14 379.507 141.755C382.671 144.37 385.495 146.833 387.503 148.634C388.507 149.543 389.303 150.282 389.872 150.775L390.705 151.608L389.815 150.851L387.37 148.785C385.324 147.023 382.501 144.616 379.317 142.001C376.134 139.386 373.254 137.037 371.131 135.35C370.089 134.517 369.236 133.834 368.63 133.455C368.024 133.076 367.739 132.66 367.739 132.66Z" fill="#EDEBFF"/>
<path d="M373.481 129.06C373.481 129.06 373.898 129.325 374.599 129.855L377.555 132.148C380.037 134.043 383.41 136.885 387.029 140.107C390.649 143.328 393.718 146.398 395.916 148.653C396.996 149.809 397.811 150.737 398.493 151.362L399.403 152.386C399.403 152.386 399.043 152.063 398.418 151.438L395.765 148.804C393.529 146.587 390.383 143.574 386.821 140.353C383.258 137.132 379.923 134.308 377.479 132.3L374.504 129.874L373.481 129.06Z" fill="#EDEBFF"/>
<path d="M386.973 134.1C387.138 134.187 387.291 134.295 387.427 134.422L388.602 135.351L392.392 138.496L396.182 141.737L397.3 142.741C397.44 142.859 397.573 142.985 397.698 143.12C397.698 143.12 397.527 143.12 397.243 142.817L396.049 141.888L392.259 138.724L388.469 135.483L387.333 134.479C387.201 134.365 387.08 134.238 386.973 134.1Z" fill="#EDEBFF"/>
<path d="M343.144 150.623L343.921 151.192L345.948 152.859C347.635 154.299 349.927 156.308 352.391 158.544C354.854 160.78 356.995 163.054 358.511 164.664L360.274 166.559L360.899 167.298C360.899 167.298 360.634 167.071 360.198 166.635L358.303 164.74C356.73 163.186 354.513 160.95 352.107 158.714C349.7 156.478 347.407 154.356 345.759 152.878L343.864 151.154C343.39 150.87 343.144 150.623 343.144 150.623Z" fill="#EDEBFF"/>
<path d="M309.339 565.13C309.339 565.13 309.339 565.301 309.111 565.566L308.41 566.684L306.117 570.474L303.9 574.264L303.237 575.42C303.168 575.565 303.079 575.699 302.972 575.818C303.016 575.659 303.08 575.506 303.161 575.363L303.73 574.169C304.241 573.165 304.98 571.8 305.852 570.379C306.724 568.958 307.595 567.613 308.24 566.703L309.035 565.623L309.339 565.13Z" fill="#9D93E2"/>
<path d="M310.4 567.727C310.246 568.089 310.062 568.438 309.85 568.769L308.505 571.251L307.198 573.752C307.039 574.114 306.842 574.457 306.61 574.776C306.716 574.398 306.856 574.03 307.027 573.677C307.311 573.014 307.728 572.085 308.24 571.119C308.751 570.152 309.301 569.224 309.699 568.674C309.89 568.329 310.125 568.01 310.4 567.727Z" fill="#9D93E2"/>
<path d="M307.652 562.705C307.498 563.122 307.301 563.522 307.065 563.899C306.667 564.6 306.136 565.586 305.492 566.628C304.848 567.67 304.279 568.636 303.844 569.318C303.408 570.001 303.124 570.417 303.105 570.417C303.252 570.003 303.449 569.609 303.692 569.243C304.071 568.523 304.62 567.556 305.246 566.495C305.871 565.434 306.477 564.468 306.913 563.785C307.124 563.402 307.371 563.04 307.652 562.705Z" fill="#9D93E2"/>
<path d="M328.856 566.324C328.856 566.324 328.989 566.438 329.178 566.684L329.955 567.764C330.599 568.674 331.471 569.962 332.343 571.44C333.214 572.918 333.953 574.264 334.465 575.23L335.052 576.424C335.135 576.564 335.193 576.718 335.223 576.879L334.958 576.481L334.294 575.325L332.077 571.535L329.785 567.745L329.027 566.779C328.955 566.633 328.898 566.481 328.856 566.324Z" fill="#9D93E2"/>
<path d="M327.814 568.902C328.081 569.191 328.316 569.509 328.515 569.849C328.913 570.456 329.424 571.308 329.955 572.294C330.486 573.279 330.902 574.189 331.187 574.852C331.365 575.2 331.499 575.569 331.585 575.951C331.355 575.634 331.164 575.29 331.016 574.927C330.675 574.283 330.201 573.412 329.69 572.426L328.344 569.944C328.123 569.621 327.945 569.271 327.814 568.902Z" fill="#9D93E2"/>
<path d="M330.542 563.899C330.832 564.225 331.086 564.581 331.3 564.96C331.736 565.661 332.324 566.609 332.949 567.67C333.574 568.731 334.124 569.697 334.522 570.417C334.746 570.794 334.942 571.187 335.109 571.592C334.823 571.257 334.569 570.895 334.351 570.512C333.915 569.83 333.328 568.883 332.703 567.821C332.077 566.76 331.528 565.775 331.13 565.074C330.91 564.695 330.714 564.302 330.542 563.899Z" fill="#9D93E2"/>
<path d="M163.47 310.646L175.976 319.42C176.872 320.049 177.926 320.413 179.019 320.47C180.111 320.527 181.198 320.275 182.154 319.742L192.651 313.849C198.876 310.375 205.781 308.293 212.889 307.747C228.958 306.572 258.139 306.175 274.549 316.634C275.119 316.991 275.802 317.122 276.464 317.003C277.125 316.884 277.719 316.523 278.13 315.99V315.99C278.524 315.502 278.738 314.893 278.738 314.266C278.738 313.638 278.524 313.03 278.13 312.541C273.639 307.179 257.021 291.508 213.704 288.078C198.288 286.71 182.891 290.897 170.292 299.883C167.627 301.781 165.186 303.974 163.015 306.421C162.754 306.722 162.557 307.074 162.437 307.454C162.318 307.835 162.278 308.236 162.321 308.633C162.364 309.029 162.488 309.413 162.686 309.76C162.883 310.106 163.15 310.408 163.47 310.646V310.646Z" stroke="black" stroke-width="1.89489" stroke-linecap="round" stroke-linejoin="round"/>
<path d="M185.621 327.511C193.535 332.455 202.492 335.484 211.781 336.359C221.071 337.234 230.436 335.93 239.133 332.551C270.02 321.182 280.176 328.06 280.176 328.06C280.176 328.06 219.881 379.583 185.621 327.511Z" stroke="black" stroke-width="1.89489" stroke-linecap="round" stroke-linejoin="round"/>
<path d="M228.105 475.445C233.804 473.105 239.046 469.776 243.586 465.611C265.87 445.468 276.917 448.746 276.917 448.746C271.638 458.741 264.742 467.794 256.509 475.54" stroke="black" stroke-width="1.89489" stroke-linecap="round" stroke-linejoin="round"/>
<path d="M176.128 440.503C176.128 440.503 204.021 451.607 235.836 433.663C267.651 415.718 280.082 420.228 280.082 420.228C280.082 420.228 223.387 484.143 176.128 440.503Z" stroke="black" stroke-width="1.89489" stroke-linecap="round" stroke-linejoin="round"/>
<path d="M187.592 375.395C187.592 375.395 241.123 408.631 278.717 351.14C278.717 351.14 255.979 366.11 235.476 365.75C214.973 365.39 187.592 375.395 187.592 375.395Z" stroke="black" stroke-width="1.89489" stroke-linecap="round" stroke-linejoin="round"/>
<path d="M180.714 413.823C180.596 413.453 180.557 413.062 180.598 412.675C180.638 412.288 180.759 411.914 180.951 411.576C181.143 411.238 181.403 410.944 181.714 410.711C182.025 410.478 182.382 410.312 182.76 410.223C195.039 407.229 253.06 393.169 277.505 390.876C277.986 390.832 278.471 390.903 278.92 391.084C279.368 391.266 279.766 391.552 280.082 391.918V391.918C280.42 392.307 280.656 392.775 280.766 393.279C280.876 393.782 280.858 394.306 280.712 394.8C280.567 395.295 280.299 395.745 279.934 396.109C279.569 396.473 279.118 396.739 278.623 396.883C267.253 400.104 238.11 409.162 220.847 421.081C201.728 434.269 183.575 421.952 180.714 413.823Z" stroke="black" stroke-width="1.89489" stroke-linecap="round" stroke-linejoin="round"/>
<path d="M120.683 457.653C120.683 457.653 90.6304 417.386 154.697 339.809C154.697 339.809 170.519 321.05 181.756 335.205C189.695 345.229 163.944 386.139 146.416 411.853C137.529 424.89 130.575 430.499 120.702 457.653H120.683Z" stroke="black" stroke-width="1.89489" stroke-linecap="round" stroke-linejoin="round"/>
<path d="M150.907 564.316C146.34 562.061 139.177 554.292 128.661 532.406C107.154 487.762 118.182 460.4 118.182 460.4C118.182 460.4 122.9 489.373 141.053 510.557C145.011 515.174 148.326 520.306 150.907 525.811" stroke="black" stroke-width="1.89489" stroke-linecap="round" stroke-linejoin="round"/>
<path d="M306.402 296.018C306.402 296.018 288.324 304.564 288.116 313.868C287.908 323.172 298.292 331.225 318.737 327.132" stroke="black" stroke-width="1.89489" stroke-linecap="round" stroke-linejoin="round"/>
<path d="M298.708 326.81C298.708 326.81 288.457 334.541 290.522 341.154C291.773 345.172 295.449 348.279 301.759 349.359" stroke="black" stroke-width="1.89489" stroke-linecap="round" stroke-linejoin="round"/>
<path d="M301.513 456.686C301.513 456.686 291.262 464.417 293.327 471.03C293.856 472.719 294.816 474.241 296.113 475.445" stroke="black" stroke-width="1.89489" stroke-linecap="round" stroke-linejoin="round"/>
<path d="M298.197 348.412C298.197 348.412 288.457 355.84 288.116 363.817C287.889 368.914 298.595 369.218 306.402 368.763" stroke="black" stroke-width="1.89489" stroke-linecap="round" stroke-linejoin="round"/>
<path d="M298.936 368.915C298.936 368.915 286.808 380.284 295.354 387.523C303.9 394.761 315.876 389.74 315.876 389.74" stroke="black" stroke-width="1.89489" stroke-linecap="round" stroke-linejoin="round"/>
<path d="M300.149 390.858C300.149 390.858 289.878 398.589 291.944 405.202C294.009 411.815 301.418 416.572 317.6 413.369" stroke="black" stroke-width="1.89489" stroke-linecap="round" stroke-linejoin="round"/>
<path d="M302.29 413.823C302.29 413.823 292.531 421.251 292.19 429.229C291.849 437.206 318.453 433.416 318.453 433.416" stroke="black" stroke-width="1.89489" stroke-linecap="round" stroke-linejoin="round"/>
<path d="M300.281 434.327C300.281 434.327 288.154 445.696 296.7 452.934C305.246 460.173 317.241 455.151 317.241 455.151" stroke="black" stroke-width="1.89489" stroke-linecap="round" stroke-linejoin="round"/>
<path d="M475.653 310.968L463.128 319.742C462.239 320.379 461.186 320.747 460.094 320.801C459.001 320.855 457.917 320.592 456.97 320.045L446.453 314.171C440.244 310.675 433.341 308.592 426.235 308.069C410.166 306.894 380.985 306.497 364.575 316.956C364.002 317.304 363.322 317.431 362.662 317.312C362.003 317.193 361.409 316.838 360.993 316.312V316.312C360.598 315.821 360.383 315.209 360.383 314.578C360.383 313.948 360.598 313.336 360.993 312.844C365.484 307.501 382.102 291.83 425.42 288.4C440.835 287.032 456.232 291.219 468.832 300.206C471.501 302.097 473.942 304.291 476.108 306.743C476.37 307.044 476.566 307.396 476.686 307.776C476.805 308.157 476.845 308.558 476.802 308.955C476.76 309.351 476.636 309.735 476.438 310.082C476.24 310.428 475.973 310.73 475.653 310.968V310.968Z" stroke="black" stroke-width="1.89489" stroke-linecap="round" stroke-linejoin="round"/>
<path d="M453.502 327.909C445.585 332.854 436.624 335.883 427.331 336.755C418.038 337.627 408.669 336.317 399.971 332.931C369.104 321.562 358.947 328.459 358.947 328.459C358.947 328.459 419.242 379.981 453.502 327.909Z" stroke="black" stroke-width="1.89489" stroke-linecap="round" stroke-linejoin="round"/>
<path d="M410.299 475.54C404.881 473.222 399.887 470.02 395.518 466.066C373.234 445.904 362.206 449.201 362.206 449.201C367.374 458.98 374.086 467.861 382.084 475.502" stroke="black" stroke-width="1.89489" stroke-linecap="round" stroke-linejoin="round"/>
<path d="M462.995 440.882C462.995 440.882 435.14 452.005 403.287 434.136C371.434 416.268 359.042 420.702 359.042 420.702C359.042 420.702 415.737 484.541 462.995 440.882Z" stroke="black" stroke-width="1.89489" stroke-linecap="round" stroke-linejoin="round"/>
<path d="M451.512 375.755C451.512 375.755 398.001 408.991 360.406 351.481C360.406 351.481 383.145 366.47 403.647 366.11C424.15 365.75 451.512 375.755 451.512 375.755Z" stroke="black" stroke-width="1.89489" stroke-linecap="round" stroke-linejoin="round"/>
<path d="M458.41 414.202C458.527 413.833 458.566 413.443 458.525 413.058C458.484 412.672 458.364 412.3 458.172 411.963C457.979 411.626 457.719 411.333 457.408 411.102C457.097 410.871 456.741 410.707 456.363 410.621C444.066 407.608 386.063 393.567 361.619 391.274C361.137 391.23 360.652 391.301 360.204 391.482C359.756 391.664 359.357 391.95 359.042 392.316V392.316C358.703 392.705 358.468 393.173 358.358 393.677C358.247 394.18 358.266 394.704 358.411 395.198C358.557 395.693 358.824 396.143 359.189 396.507C359.555 396.871 360.006 397.137 360.501 397.281C371.87 400.502 401.014 409.56 418.276 421.479C437.377 434.667 455.549 422.331 458.41 414.202Z" stroke="black" stroke-width="1.89489" stroke-linecap="round" stroke-linejoin="round"/>
<path d="M518.516 458.05C518.516 458.05 548.569 417.784 484.521 340.207C484.521 340.207 468.699 321.429 457.462 335.602C449.504 345.608 475.274 386.537 492.802 412.251C501.689 425.288 508.643 430.897 518.516 458.05Z" stroke="black" stroke-width="1.89489" stroke-linecap="round" stroke-linejoin="round"/>
<path d="M488.387 564.657C492.954 562.345 500.078 554.519 510.519 532.803C532.026 488.16 520.998 460.798 520.998 460.798C520.998 460.798 516.28 489.771 498.127 510.955C494.169 515.572 490.855 520.703 488.273 526.209" stroke="black" stroke-width="1.89489" stroke-linecap="round" stroke-linejoin="round"/>
<path d="M334.162 296.928C334.162 296.928 350.799 304.962 351.007 314.266C351.159 320.822 346.024 326.772 335.848 328.25" stroke="black" stroke-width="1.89489" stroke-linecap="round" stroke-linejoin="round"/>
<path d="M340.396 327.208C340.396 327.208 350.647 334.939 348.582 341.552C346.517 348.165 337.933 352.296 321.807 348.999" stroke="black" stroke-width="1.89489" stroke-linecap="round" stroke-linejoin="round"/>
<path d="M337.61 457.084C337.61 457.084 347.862 464.815 345.796 471.428C345.309 472.977 344.458 474.387 343.314 475.54" stroke="black" stroke-width="1.89489" stroke-linecap="round" stroke-linejoin="round"/>
<path d="M340.926 348.867C340.926 348.867 350.666 356.276 351.007 364.272C351.348 372.269 324.744 368.46 324.744 368.46" stroke="black" stroke-width="1.89489" stroke-linecap="round" stroke-linejoin="round"/>
<path d="M340.188 369.313C340.188 369.313 352.315 380.682 343.769 387.921C341.664 389.716 339.132 390.936 336.417 391.464" stroke="black" stroke-width="1.89489" stroke-linecap="round" stroke-linejoin="round"/>
<path d="M338.975 391.256C338.975 391.256 349.245 398.987 347.161 405.6C345.474 411.019 339.411 414.771 328.439 414.127" stroke="black" stroke-width="1.89489" stroke-linecap="round" stroke-linejoin="round"/>
<path d="M336.834 414.221C336.834 414.221 346.573 421.63 346.914 429.627C347.085 433.416 341.23 434.553 334.977 434.705" stroke="black" stroke-width="1.89489" stroke-linecap="round" stroke-linejoin="round"/>
<path d="M338.823 434.724C338.823 434.724 350.951 446.094 342.424 453.332C339.819 455.505 336.612 456.827 333.233 457.122" stroke="black" stroke-width="1.89489" stroke-linecap="round" stroke-linejoin="round"/>
<path d="M271.46 223.52L268.542 235.875C268.542 235.875 272.654 241.01 281.048 238.546L283.644 227.177" stroke="black" stroke-width="1.89489" stroke-linecap="round" stroke-linejoin="round"/>
<path d="M291.508 261.133L293.024 252.587C293.024 252.587 288.571 247.774 280.366 250.806L279.38 256.699" stroke="black" stroke-width="1.89489" stroke-linecap="round" stroke-linejoin="round"/>
<path d="M351.765 259.579L349.188 250.787C349.188 250.787 353.186 245.576 361.638 247.85L363.533 254.274" stroke="black" stroke-width="1.89489" stroke-linecap="round" stroke-linejoin="round"/>
<path d="M310.078 265.169L311.328 255.486C311.328 255.486 306.667 250.882 298.613 254.292L297.477 262.801" stroke="black" stroke-width="1.89489" stroke-linecap="round" stroke-linejoin="round"/>
<path d="M328.288 265.492L328.553 256.339C328.553 256.339 323.456 251.621 315.725 255.885L315.402 265.245" stroke="black" stroke-width="1.89489" stroke-linecap="round" stroke-linejoin="round"/>
<path d="M346.573 261.531L345.209 252.492C345.209 252.492 339.354 248.703 332.513 254.387L334.029 264.904" stroke="black" stroke-width="1.89489" stroke-linecap="round" stroke-linejoin="round"/>
<path d="M287.131 228.352L285.785 240.403C285.785 240.403 290.503 244.97 298.519 241.464L299.675 230.455" stroke="black" stroke-width="1.89489" stroke-linecap="round" stroke-linejoin="round"/>
<path d="M304.185 231.25L303.73 243.359C303.73 243.359 308.751 247.565 316.501 243.472L316.843 231.364" stroke="black" stroke-width="1.89489" stroke-linecap="round" stroke-linejoin="round"/>
<path d="M321.978 231.384L322.394 242.488C322.394 242.488 327.738 246.278 335.147 241.654L334.654 230.588" stroke="black" stroke-width="1.89489" stroke-linecap="round" stroke-linejoin="round"/>
<path d="M337.516 229.868L339.524 240.29C339.524 240.29 345.379 243.246 352.012 237.523L350.117 227.632" stroke="black" stroke-width="1.89489" stroke-linecap="round" stroke-linejoin="round"/>
<path d="M353.66 226.987L358.075 238.186C358.075 238.186 364.385 240.081 369.843 233.165L366.053 223.804" stroke="black" stroke-width="1.89489" stroke-linecap="round" stroke-linejoin="round"/>
<path d="M278.528 256.339C268.867 251.789 260.961 244.202 256.017 234.737C254.957 232.774 253.407 231.118 251.518 229.933C249.628 228.747 247.463 228.072 245.235 227.972L224.77 226.987L241.104 258.253C242.385 260.659 244.295 262.673 246.631 264.078C248.968 265.483 251.642 266.227 254.368 266.23C258.84 266.23 265.851 269.129 276.425 279.494C279.28 282.316 282.402 284.855 285.747 287.074C296.091 294.084 308.369 297.682 320.86 297.363H321.637C334.128 297.682 346.406 294.084 356.749 287.074C360.094 284.855 363.216 282.316 366.072 279.494C376.645 269.148 383.656 266.23 388.128 266.23C390.855 266.227 393.529 265.483 395.865 264.078C398.201 262.673 400.112 260.659 401.393 258.253L417.727 226.987L395.954 227.461C393.799 227.517 391.691 228.11 389.822 229.185C387.953 230.26 386.381 231.784 385.248 233.619C380.621 240.577 374.803 246.664 368.061 251.601C354.21 260.185 324.687 276.178 278.528 256.339Z" stroke="black" stroke-width="1.89489" stroke-linecap="round" stroke-linejoin="round"/>
<path d="M374.352 219.901C309.528 245.254 263.122 219.503 263.122 219.503L267.424 217.797C267.424 217.797 199.321 239.626 215.959 175.049C216.982 171.169 218.287 167.369 219.862 163.679C222.913 156.498 228.692 140.164 223.803 129.457L220.298 147.345C220.208 147.785 219.988 148.189 219.667 148.503C219.347 148.818 218.939 149.029 218.497 149.111C218.056 149.192 217.6 149.14 217.188 148.96C216.776 148.781 216.427 148.482 216.186 148.103C208.777 136.071 192.216 101.356 216.337 60.5402C225.436 45.4322 238.104 32.7895 253.231 23.7225C269.333 13.8837 287.003 6.87851 305.473 3.01138C310.094 2.07552 314.799 1.61833 319.514 1.64706V1.64706C324.235 1.61743 328.947 2.07462 333.574 3.01138C352.653 7.00959 370.873 14.3552 387.389 24.7079C401.49 33.411 413.359 45.2929 422.047 59.4033C447.173 100.731 430.365 135.976 422.881 148.122C421.819 149.846 419.091 149.392 418.693 146.909L415.263 129.476C410.431 140.088 416.078 156.232 419.148 163.584C420.768 167.386 422.111 171.299 423.165 175.295C439.631 239.721 371.662 217.873 371.662 217.873L374.352 219.901Z" stroke="black" stroke-width="1.89489" stroke-linecap="round" stroke-linejoin="round"/>
<path d="M239.967 131.181C235.684 141.092 225.243 171.353 253.799 178.042C259.854 179.363 266.126 179.318 272.161 177.909C312.276 169.117 298.803 136.335 294.066 127.013C293.687 126.267 293.097 125.65 292.369 125.238C291.64 124.827 290.807 124.64 289.973 124.701L244.723 127.808C243.695 127.874 242.706 128.225 241.866 128.82C241.027 129.416 240.369 130.233 239.967 131.181V131.181Z" stroke="black" stroke-width="1.89489" stroke-miterlimit="10"/>
<path d="M398.569 131.181C402.852 141.092 413.292 171.353 384.736 178.042C378.682 179.363 372.409 179.318 366.375 177.909C326.26 169.117 339.714 136.335 344.47 127.013C344.849 126.267 345.439 125.65 346.167 125.238C346.895 124.827 347.729 124.64 348.563 124.701L393.813 127.808C394.84 127.874 395.83 128.225 396.669 128.82C397.509 129.416 398.167 130.233 398.569 131.181V131.181Z" stroke="black" stroke-width="1.89489" stroke-miterlimit="10"/>
<path d="M320.746 150.775C320.746 150.775 315.175 169.572 305.435 181.358C295.695 193.145 300.262 203.889 300.262 203.889C300.262 203.889 306.667 201.994 313.526 208.853C318.529 213.837 329.235 209.876 334.635 207.394C335.832 206.843 336.874 206.005 337.667 204.953C338.461 203.902 338.982 202.67 339.183 201.368C339.944 195.332 338.605 189.217 335.393 184.049C328.174 171.24 323.058 162.959 320.746 150.775Z" stroke="black" stroke-width="1.89489" stroke-miterlimit="10"/>
<path d="M150.907 580.044V486.36C150.904 484.939 151.183 483.531 151.725 482.217C152.268 480.903 153.065 479.709 154.07 478.704C155.076 477.699 156.269 476.902 157.583 476.359C158.897 475.816 160.305 475.538 161.727 475.54H477.453C480.323 475.54 483.075 476.68 485.104 478.71C487.133 480.739 488.273 483.491 488.273 486.36V604.204" stroke="#7C7C7C" stroke-width="1.89489" stroke-miterlimit="10" stroke-linecap="round"/>
<path d="M329.974 595.922V610.248C336.133 615.459 338.539 609.395 338.539 609.395L339.221 581.976C339.221 581.976 361.278 571.232 357.147 548.341C355.461 539.057 348.942 532.993 341.798 529.07C334.977 525.35 327.332 523.401 319.562 523.401C311.792 523.401 304.147 525.35 297.325 529.07C290.182 532.993 283.663 539.057 281.977 548.341C277.865 571.232 299.883 581.938 299.883 581.938L300.585 609.357C300.585 609.357 305 615.837 309.945 610.456L309.813 594.065" stroke="black" stroke-width="0.947445" stroke-linecap="round" stroke-linejoin="round"/>
<path d="M309.945 610.495C309.945 610.495 316.558 616.388 319.552 610.495V594.994" stroke="black" stroke-width="0.947445" stroke-linecap="round" stroke-linejoin="round"/>
<path d="M319.552 610.494C319.552 610.494 325.047 616.71 329.974 610.248" stroke="black" stroke-width="0.947445" stroke-linecap="round" stroke-linejoin="round"/>
<path d="M302.062 555.902C301.736 555.84 301.401 555.847 301.078 555.924C300.755 556.001 300.452 556.145 300.189 556.347C299.925 556.55 299.708 556.805 299.551 557.098C299.394 557.39 299.3 557.713 299.277 558.044C298.822 564.164 298.822 583.17 309.604 580.877C322.451 578.129 316.767 564.657 309.073 559.029C307.026 557.431 304.619 556.358 302.062 555.902V555.902Z" stroke="black" stroke-width="0.947445" stroke-miterlimit="10"/>
<path d="M337.269 555.902C337.595 555.843 337.93 555.853 338.251 555.931C338.573 556.009 338.875 556.153 339.137 556.355C339.4 556.557 339.617 556.811 339.775 557.102C339.933 557.393 340.029 557.714 340.055 558.044C340.491 564.164 340.491 583.17 329.709 580.877C316.862 578.13 322.546 564.657 330.239 559.029C332.293 557.43 334.706 556.356 337.269 555.902Z" stroke="black" stroke-width="0.947445" stroke-miterlimit="10"/>
</g>
<defs>
<filter id="filter0_d_1_896" x="0.398438" y="0.698257" width="635.151" height="717.365" filterUnits="userSpaceOnUse" color-interpolation-filters="sRGB">
<feFlood flood-opacity="0" result="BackgroundImageFix"/>
<feColorMatrix in="SourceAlpha" type="matrix" values="0 0 0 0 0 0 0 0 0 0 0 0 0 0 0 0 0 0 127 0" result="hardAlpha"/>
<feOffset dy="4"/>
<feGaussianBlur stdDeviation="2"/>
<feComposite in2="hardAlpha" operator="out"/>
<feColorMatrix type="matrix" values="0 0 0 0 0 0 0 0 0 0 0 0 0 0 0 0 0 0 0.25 0"/>
<feBlend mode="normal" in2="BackgroundImageFix" result="effect1_dropShadow_1_896"/>
<feBlend mode="normal" in="SourceGraphic" in2="effect1_dropShadow_1_896" result="shape"/>
</filter>
</defs>
</svg>
